<svg width="50" height="50" viewBox="0 0 50 50" fill="none" xmlns="http://www.w3.org/2000/svg">
<path d="M49.9854 0H0.0146484C0.00655833 0 0 0.00655833 0 0.0146484V49.9854C0 49.9934 0.00655833 50 0.0146484 50H49.9854C49.9934 50 50 49.9934 50 49.9854V0.0146484C50 0.00655833 49.9934 0 49.9854 0Z" fill="#4455DD"/>
<path d="M32.2266 50V31.4453H38.4766L39.3555 24.2188H32.2266V19.6289C32.2266 17.4805 32.8125 16.1133 35.8398 16.1133H39.6484V9.66797C38.9648 9.57031 36.7188 9.375 34.082 9.375C28.5156 9.375 24.8047 12.6953 24.8047 18.9453V24.2188H18.5547V31.4453H24.8047V50H32.2266Z" fill="white"/>
</svg>
