<svg width="50" height="50" viewBox="0 0 50 50" fill="none" xmlns="http://www.w3.org/2000/svg">
<path d="M49.9854 0H0.0146484C0.00655833 0 0 0.00655833 0 0.0146484V49.9854C0 49.9934 0.00655833 50 0.0146484 50H49.9854C49.9934 50 50 49.9934 50 49.9854V0.0146484C50 0.00655833 49.9934 0 49.9854 0Z" fill="#4455DD"/>
<path d="M31.8359 10.5469H18.1641C13.9572 10.5469 10.5469 13.9572 10.5469 18.1641V31.8359C10.5469 36.0428 13.9572 39.4531 18.1641 39.4531H31.8359C36.0428 39.4531 39.4531 36.0428 39.4531 31.8359V18.1641C39.4531 13.9572 36.0428 10.5469 31.8359 10.5469Z" stroke="white" stroke-width="3"/>
<path d="M25 31.7383C28.7214 31.7383 31.7383 28.7214 31.7383 25C31.7383 21.2786 28.7214 18.2617 25 18.2617C21.2786 18.2617 18.2617 21.2786 18.2617 25C18.2617 28.7214 21.2786 31.7383 25 31.7383Z" stroke="white" stroke-width="3"/>
<path d="M33.4961 18.3594C34.5208 18.3594 35.3516 17.5287 35.3516 16.5039C35.3516 15.4792 34.5208 14.6484 33.4961 14.6484C32.4713 14.6484 31.6406 15.4792 31.6406 16.5039C31.6406 17.5287 32.4713 18.3594 33.4961 18.3594Z" fill="white"/>
</svg>
