<svg width="50" height="50" viewBox="0 0 50 50" fill="none" xmlns="http://www.w3.org/2000/svg">
<path d="M49.9854 0H0.0146484C0.00655833 0 0 0.00655833 0 0.0146484V49.9854C0 49.9934 0.00655833 50 0.0146484 50H49.9854C49.9934 50 50 49.9934 50 49.9854V0.0146484C50 0.00655833 49.9934 0 49.9854 0Z" fill="#4455DD"/>
<path d="M42.6758 14.8438C41.5181 15.6118 40.1588 16.0196 38.7695 16.0157C40.2548 15.1407 41.3669 13.7506 41.8945 12.1094C40.6633 13.1503 39.1119 13.7364 37.5 13.7696C36.4373 12.6812 35.0502 11.9667 33.547 11.7335C32.0438 11.5003 30.5054 11.7609 29.1629 12.4762C27.8203 13.1915 26.746 14.3229 26.101 15.7006C25.4561 17.0784 25.2753 18.6281 25.5859 20.1173C22.8509 19.9729 20.1768 19.2549 17.7373 18.0099C15.2978 16.7649 13.1474 15.0207 11.4258 12.8907C10.5833 14.4151 10.3366 16.198 10.7336 17.894C11.1305 19.5899 12.1427 21.0781 13.5742 22.0704C12.4939 22.0856 11.4245 21.8517 10.4492 21.3868C10.4755 22.9599 11.0286 24.4787 12.02 25.7003C13.0115 26.9219 14.384 27.7757 15.918 28.1251C14.8968 28.3917 13.8288 28.4251 12.793 28.2227C13.2398 29.6163 14.1103 30.8357 15.2832 31.711C16.4561 32.5863 17.8728 33.0738 19.3359 33.1055C16.2458 34.9801 12.6962 35.9605 9.08203 35.9376C12.1089 37.9137 15.6248 39.011 19.2384 39.1073C22.8519 39.2037 26.4213 38.2953 29.5492 36.4834C32.6771 34.6714 35.2408 32.027 36.9549 28.8444C38.669 25.6618 39.4662 22.0659 39.2578 18.4571C40.5465 17.4033 41.6951 16.189 42.6758 14.8438Z" fill="white"/>
</svg>
