<svg width="50" height="50" viewBox="0 0 50 50" fill="none" xmlns="http://www.w3.org/2000/svg">
<path d="M49.9854 0H0.0146484C0.00655833 0 0 0.00655833 0 0.0146484V49.9854C0 49.9934 0.00655833 50 0.0146484 50H49.9854C49.9934 50 50 49.9934 50 49.9854V0.0146484C50 0.00655833 49.9934 0 49.9854 0Z" fill="#4455DD"/>
<path d="M41.6992 16.5039C41.3086 15.0391 40.039 13.8672 38.5742 13.4766C35.2539 12.5976 15.2344 12.5 11.4258 13.4766C9.96093 13.8672 8.6914 15.0391 8.30077 16.5039C7.42187 20.2148 7.32421 29.6875 8.30077 33.4961C8.6914 34.9609 9.96093 36.1328 11.4258 36.5234C14.9414 37.5 34.9609 37.5 38.5742 36.5234C40.039 36.1328 41.3086 34.9609 41.6992 33.4961C42.5781 29.9805 42.5781 20.1172 41.6992 16.5039Z" fill="white"/>
<path d="M21.4844 19.8242V30.1758L30.5664 25" fill="#4455DD"/>
</svg>
