<svg width="361" height="361" viewBox="0 0 361 361" fill="none" xmlns="http://www.w3.org/2000/svg">
<path d="M324.9 199.452C324.893 177.906 320.063 156.634 310.766 137.196C301.469 117.758 287.94 100.647 271.17 87.1176C254.401 73.5881 234.816 63.983 213.852 59.0064C192.888 54.0297 171.076 53.8077 150.015 58.3566C128.953 62.9055 109.177 72.1101 92.1358 85.2954C75.0944 98.4807 61.2197 115.313 51.5289 134.557C41.8381 153.802 36.5769 174.971 36.1309 196.513C35.6849 218.055 40.0655 239.424 48.9516 259.053H312.048C320.533 240.33 324.915 220.008 324.9 199.452Z" fill="#F0F2FF"/>
<path d="M39.71 259.054H321.29" stroke="#4550E5" stroke-width="3" stroke-linecap="round" stroke-linejoin="round"/>
<path d="M23.465 259.054H32.49" stroke="#4550E5" stroke-width="3" stroke-linecap="round" stroke-linejoin="round"/>
<path d="M328.51 259.054H337.535" stroke="#4550E5" stroke-width="3" stroke-linecap="round" stroke-linejoin="round"/>
<path d="M153.208 305.947C189.096 305.947 218.188 303.523 218.188 300.532C218.188 297.542 189.096 295.117 153.208 295.117C117.321 295.117 88.2284 297.542 88.2284 300.532C88.2284 303.523 117.321 305.947 153.208 305.947Z" fill="#F0F2FF"/>
<path d="M228.874 181.042C234.619 181.042 240.128 178.759 244.19 174.697C248.252 170.635 250.534 165.126 250.534 159.382V116.062C250.547 110.121 249.339 104.242 246.983 98.7884C244.628 93.3351 241.176 88.4244 236.842 84.3616C232.509 80.2988 227.386 77.1707 221.792 75.1717C216.198 73.1727 210.253 72.3455 204.326 72.7415C193.169 73.7083 182.794 78.8686 175.291 87.1821C167.788 95.4957 163.715 106.344 163.894 117.542V159.382C163.894 165.126 166.176 170.635 170.238 174.697C174.3 178.759 179.809 181.042 185.554 181.042H228.874Z" fill="white"/>
<path d="M228.874 181.042C234.619 181.042 240.128 178.759 244.19 174.697C248.252 170.635 250.534 165.126 250.534 159.382V116.062C250.547 110.121 249.339 104.242 246.983 98.7884C244.628 93.3351 241.176 88.4244 236.842 84.3616C232.509 80.2988 227.386 77.1707 221.792 75.1717C216.198 73.1727 210.253 72.3455 204.326 72.7415C193.169 73.7083 182.794 78.8686 175.291 87.1821C167.788 95.4957 163.715 106.344 163.894 117.542V159.382C163.894 165.126 166.176 170.635 170.238 174.697C174.3 178.759 179.809 181.042 185.554 181.042H228.874Z" stroke="#4550E5" stroke-width="3" stroke-linecap="round" stroke-linejoin="round"/>
<path d="M207.214 174.544C199.803 174.544 192.465 176.006 185.621 178.848C178.777 181.689 172.56 185.854 167.329 191.102C162.097 196.351 157.952 202.58 155.133 209.434C152.313 216.287 150.874 223.63 150.898 231.04V246.202C150.898 274.757 140.754 278.692 129.527 278.692H120.574V298.186H129.527C145.266 298.186 172.558 285.082 172.558 259.198H241.87C241.87 275.66 229.74 278.692 220.499 278.692H211.546V298.186H220.499C238.26 298.006 263.53 294.215 263.53 259.018V231.04C263.559 223.628 262.123 216.284 259.305 209.428C256.487 202.572 252.343 196.341 247.11 191.091C241.877 185.842 235.659 181.678 228.813 178.838C221.966 175.998 214.626 174.539 207.214 174.544Z" fill="white"/>
<path d="M207.214 174.544C199.803 174.544 192.465 176.006 185.621 178.848C178.777 181.689 172.56 185.854 167.329 191.102C162.097 196.351 157.952 202.58 155.133 209.434C152.313 216.287 150.874 223.63 150.898 231.04V246.202C150.898 274.757 140.754 278.692 129.527 278.692H120.574V298.186H129.527C145.266 298.186 172.558 285.082 172.558 259.198H241.87C241.87 275.66 229.74 278.692 220.499 278.692H211.546V298.186H220.499C238.26 298.006 263.53 294.215 263.53 259.018V231.04C263.559 223.628 262.123 216.284 259.305 209.428C256.487 202.572 252.343 196.341 247.11 191.091C241.877 185.842 235.659 181.678 228.813 178.838C221.966 175.998 214.626 174.539 207.214 174.544V174.544Z" stroke="#4550E5" stroke-width="3" stroke-linecap="round" stroke-linejoin="round"/>
<path d="M172.558 233.026V259.018" stroke="#4550E5" stroke-width="3" stroke-linecap="round" stroke-linejoin="round"/>
<path d="M241.87 233.026V259.018" stroke="#4550E5" stroke-width="3" stroke-linecap="round" stroke-linejoin="round"/>
<path d="M211.546 296.02H205.048C202.75 296.02 200.546 295.107 198.922 293.482C197.297 291.857 196.384 289.654 196.384 287.356C196.384 285.058 197.297 282.854 198.922 281.23C200.546 279.605 202.75 278.692 205.048 278.692H211.546V296.02Z" fill="white" stroke="#4550E5" stroke-width="3" stroke-linecap="round" stroke-linejoin="round"/>
<path d="M120.574 296.02H114.076C111.778 296.02 109.574 295.107 107.95 293.482C106.325 291.857 105.412 289.654 105.412 287.356C105.412 285.058 106.325 282.854 107.95 281.23C109.574 279.605 111.778 278.692 114.076 278.692H120.574V296.02Z" fill="white" stroke="#4550E5" stroke-width="3" stroke-linecap="round" stroke-linejoin="round"/>
<path d="M207.214 202.701V259.017" stroke="#4550E5" stroke-width="3" stroke-linecap="round" stroke-linejoin="round"/>
<path d="M220.21 176.709L207.214 202.701L194.218 176.709V165.879H220.21V176.709Z" fill="white"/>
<path d="M220.21 176.709L207.214 202.701L194.218 176.709V165.879H220.21V176.709Z" stroke="#4550E5" stroke-width="3" stroke-linecap="round" stroke-linejoin="round"/>
<path d="M186.926 196.673C187.269 197.12 187.713 197.479 188.221 197.724C188.728 197.968 189.286 198.091 189.85 198.081C190.41 198.067 190.96 197.923 191.455 197.659C191.95 197.396 192.377 197.021 192.702 196.565L199.2 187.54C199.66 186.918 199.908 186.165 199.908 185.392C199.908 184.618 199.66 183.865 199.2 183.244L193.857 176.024C187.831 177.478 182.086 179.918 176.854 183.244L186.926 196.673Z" fill="white" stroke="#4550E5" stroke-width="3" stroke-linecap="round" stroke-linejoin="round"/>
<path d="M227.43 196.673C227.094 197.121 226.658 197.485 226.156 197.736C225.655 197.987 225.102 198.117 224.542 198.117C223.982 198.117 223.429 197.987 222.928 197.736C222.426 197.485 221.99 197.121 221.654 196.673L215.264 187.72C214.804 187.099 214.556 186.346 214.556 185.572C214.556 184.799 214.804 184.046 215.264 183.424L220.607 176.204C226.645 177.658 232.402 180.098 237.646 183.424L227.43 196.673Z" fill="white" stroke="#4550E5" stroke-width="3" stroke-linecap="round" stroke-linejoin="round"/>
<path d="M244.036 126.892V118.227C244.036 117.217 244.036 116.206 244.036 115.231C236.103 119.812 226.808 121.447 217.788 119.849C208.767 118.251 200.6 113.522 194.723 106.495C193.518 110.96 190.937 114.932 187.348 117.848C183.758 120.764 179.341 122.475 174.724 122.74C173.266 122.737 171.812 122.567 170.392 122.235V127.072C168.672 127.081 167.024 127.769 165.808 128.986C164.591 130.202 163.904 131.85 163.894 133.57V135.736C163.904 137.456 164.591 139.104 165.808 140.32C167.024 141.537 168.672 142.225 170.392 142.234H171.006C172.508 150.75 176.963 158.465 183.588 164.023C190.213 169.582 198.584 172.628 207.232 172.628C215.88 172.628 224.251 169.582 230.876 164.023C237.501 158.465 241.956 150.75 243.458 142.234H244.036C245.759 142.234 247.412 141.549 248.631 140.331C249.849 139.112 250.534 137.459 250.534 135.736V133.57C250.558 132.702 250.408 131.837 250.092 131.028C249.776 130.219 249.302 129.481 248.696 128.858C248.09 128.235 247.365 127.741 246.565 127.403C245.765 127.065 244.905 126.891 244.036 126.892Z" fill="white" stroke="#4550E5" stroke-width="3" stroke-linecap="round" stroke-linejoin="round"/>
<path d="M189.886 142.053C189.886 142.91 189.632 143.748 189.156 144.46C188.68 145.172 188.003 145.728 187.212 146.055C186.42 146.383 185.549 146.469 184.709 146.302C183.869 146.135 183.097 145.722 182.491 145.116C181.885 144.511 181.472 143.739 181.305 142.898C181.138 142.058 181.224 141.187 181.552 140.395C181.88 139.604 182.435 138.927 183.147 138.451C183.86 137.975 184.697 137.721 185.554 137.721C186.703 137.721 187.805 138.178 188.617 138.99C189.43 139.802 189.886 140.904 189.886 142.053Z" fill="#D6DAFF"/>
<path d="M233.206 142.053C233.206 142.91 232.952 143.748 232.476 144.46C232 145.172 231.323 145.728 230.532 146.055C229.74 146.383 228.869 146.469 228.029 146.302C227.189 146.135 226.417 145.722 225.811 145.116C225.205 144.511 224.792 143.739 224.625 142.898C224.458 142.058 224.544 141.187 224.872 140.395C225.2 139.604 225.755 138.927 226.467 138.451C227.18 137.975 228.017 137.721 228.874 137.721C230.023 137.721 231.125 138.178 231.937 138.99C232.75 139.802 233.206 140.904 233.206 142.053Z" fill="#D6DAFF"/>
<path d="M196.384 150.718C199.304 153.498 203.182 155.05 207.214 155.05C211.246 155.05 215.124 153.498 218.044 150.718" stroke="#4550E5" stroke-width="3" stroke-linecap="round" stroke-linejoin="round"/>
<path d="M226.708 131.224C226.256 130.161 225.502 129.255 224.539 128.618C223.576 127.982 222.447 127.642 221.293 127.642C220.139 127.642 219.01 127.982 218.047 128.618C217.084 129.255 216.33 130.161 215.878 131.224" stroke="#4550E5" stroke-width="3" stroke-linecap="round" stroke-linejoin="round"/>
<path d="M198.55 130.502C198.098 129.439 197.344 128.533 196.381 127.897C195.418 127.26 194.289 126.92 193.135 126.92C191.981 126.92 190.852 127.26 189.889 127.897C188.926 128.533 188.172 129.439 187.72 130.502" stroke="#4550E5" stroke-width="3" stroke-linecap="round" stroke-linejoin="round"/>
<path d="M155.23 142.054V148.552C155.23 151.112 155.734 153.647 156.714 156.012C157.694 158.377 159.129 160.526 160.94 162.336C162.75 164.146 164.899 165.582 167.264 166.562C169.629 167.541 172.164 168.046 174.724 168.046H185.554" stroke="#4550E5" stroke-width="3" stroke-linecap="round" stroke-linejoin="round"/>
<path d="M159.562 124.726H168.226V146.386H159.562C158.413 146.386 157.311 145.929 156.499 145.117C155.686 144.304 155.23 143.202 155.23 142.054V129.058C155.23 127.909 155.686 126.807 156.499 125.994C157.311 125.182 158.413 124.726 159.562 124.726Z" fill="white" stroke="#4550E5" stroke-width="3" stroke-linecap="round" stroke-linejoin="round"/>
<path d="M163.894 142.054C163.894 143.202 164.35 144.304 165.163 145.117C165.975 145.929 167.077 146.386 168.226 146.386C169.375 146.386 170.477 145.929 171.289 145.117C172.102 144.304 172.558 143.202 172.558 142.054V129.058C172.558 127.909 172.102 126.807 171.289 125.994C170.477 125.182 169.375 124.726 168.226 124.726C167.077 124.726 165.975 125.182 165.163 125.994C164.35 126.807 163.894 127.909 163.894 129.058V142.054Z" fill="#D6DAFF" stroke="#4550E5" stroke-width="3" stroke-linecap="round" stroke-linejoin="round"/>
<path d="M254.866 146.385H246.202V124.726H254.866C256.015 124.726 257.117 125.182 257.929 125.994C258.742 126.807 259.198 127.909 259.198 129.058V142.053C259.198 143.202 258.742 144.304 257.929 145.117C257.117 145.929 256.015 146.385 254.866 146.385Z" fill="white" stroke="#4550E5" stroke-width="3" stroke-linecap="round" stroke-linejoin="round"/>
<path d="M250.534 142.054C250.534 143.202 250.078 144.304 249.265 145.117C248.453 145.929 247.351 146.386 246.202 146.386C245.053 146.386 243.951 145.929 243.139 145.117C242.326 144.304 241.87 143.202 241.87 142.054V129.058C241.87 127.909 242.326 126.807 243.139 125.994C243.951 125.182 245.053 124.726 246.202 124.726C247.351 124.726 248.453 125.182 249.265 125.994C250.078 126.807 250.534 127.909 250.534 129.058V142.054Z" fill="#D6DAFF" stroke="#4550E5" stroke-width="3" stroke-linecap="round" stroke-linejoin="round"/>
<path d="M198.55 168.046C198.55 169.331 198.169 170.587 197.455 171.656C196.741 172.724 195.726 173.557 194.539 174.049C193.351 174.541 192.045 174.669 190.784 174.419C189.524 174.168 188.366 173.549 187.457 172.64C186.549 171.732 185.93 170.574 185.679 169.313C185.428 168.053 185.557 166.746 186.049 165.559C186.541 164.372 187.373 163.357 188.442 162.643C189.511 161.929 190.767 161.548 192.052 161.548C193.773 161.557 195.42 162.245 196.636 163.461C197.853 164.678 198.541 166.325 198.55 168.046Z" fill="#D6DAFF" stroke="#4550E5" stroke-width="3" stroke-linecap="round" stroke-linejoin="round"/>
<path d="M155.23 135.556V116.062C155.23 102.275 160.707 89.0522 170.456 79.3033C180.205 69.5544 193.427 64.0775 207.214 64.0775C221.001 64.0775 234.223 69.5544 243.972 79.3033C253.721 89.0522 259.198 102.275 259.198 116.062V135.556" stroke="#4550E5" stroke-width="3" stroke-linecap="round" stroke-linejoin="round"/>
<path d="M166.529 289.702H174.58L157.36 236.238C157.115 235.484 156.629 234.832 155.977 234.382C155.324 233.932 154.542 233.709 153.75 233.747H148.479L166.529 289.702Z" fill="#D6DAFF" stroke="#4550E5" stroke-width="3" stroke-linejoin="round"/>
<path d="M96.1343 289.703H166.529L148.479 233.748H83.03C82.4602 233.748 81.8986 233.883 81.3912 234.142C80.8837 234.401 80.4447 234.777 80.1102 235.238C79.7757 235.7 79.5552 236.233 79.4666 236.796C79.378 237.359 79.4239 237.935 79.6005 238.477L96.1343 289.703Z" fill="#D6DAFF"/>
<path d="M96.1343 289.703H170.139V298.728H103.354C101.439 298.728 99.603 297.967 98.249 296.613C96.895 295.259 96.1343 293.422 96.1343 291.508V289.703Z" fill="#D6DAFF" stroke="#4550E5" stroke-width="3" stroke-linejoin="round"/>
<path d="M170.139 289.703H202.629C203.108 289.703 203.567 289.893 203.906 290.231C204.244 290.57 204.434 291.029 204.434 291.508C204.434 293.422 203.674 295.259 202.32 296.613C200.966 297.967 199.129 298.728 197.214 298.728H170.139V289.703Z" fill="#D6DAFF" stroke="#4550E5" stroke-width="3" stroke-linejoin="round"/>
<path d="M126.35 259.92C126.315 259.214 126.463 258.511 126.78 257.878C127.096 257.246 127.569 256.706 128.155 256.31C127.787 255.787 127.302 255.357 126.737 255.056C126.173 254.755 125.545 254.591 124.906 254.577C123.534 254.577 122.199 255.371 121.513 255.371C120.827 255.371 119.744 254.577 118.589 254.613C117.849 254.641 117.129 254.858 116.497 255.244C115.865 255.629 115.342 256.17 114.979 256.815C114.391 258.28 114.186 259.87 114.382 261.436C114.577 263.002 115.168 264.493 116.098 265.768C116.856 266.851 117.758 268.042 118.913 268.006C120.069 267.97 120.466 267.284 121.801 267.284C123.137 267.284 123.57 268.006 124.726 267.97C125.881 267.934 126.711 266.887 127.469 265.804C127.979 265.014 128.391 264.166 128.697 263.277C128.027 262.998 127.452 262.533 127.036 261.939C126.621 261.345 126.383 260.644 126.35 259.92Z" fill="white" stroke="#4550E5" stroke-width="3" stroke-linejoin="round"/>
<path d="M123.209 249.993L124.834 248.368" stroke="#4550E5" stroke-width="3" stroke-linecap="round" stroke-linejoin="round"/>
<path d="M96.1343 289.703H166.529L148.479 233.748H83.03C82.4602 233.748 81.8986 233.883 81.3912 234.142C80.8837 234.401 80.4447 234.777 80.1102 235.238C79.7757 235.7 79.5552 236.233 79.4666 236.796C79.378 237.359 79.4239 237.935 79.6005 238.477L96.1343 289.703Z" stroke="#4550E5" stroke-width="3" stroke-linejoin="round"/>
</svg>
