<svg width="137" height="27" viewBox="0 0 137 27" fill="none" xmlns="http://www.w3.org/2000/svg">
<g clip-path="url(#clip0)">
<path d="M37.04 21C36.6886 21.0303 36.3347 20.9872 36.0007 20.8736C35.6668 20.76 35.3601 20.5783 35.1 20.34C34.6597 19.824 34.4373 19.157 34.48 18.48V6.2H37.04V18.96H38.42V21H37.04ZM41.64 9.04C41.434 9.05959 41.2262 9.03783 41.0287 8.97601C40.8312 8.91419 40.6481 8.81355 40.49 8.68C40.3731 8.55782 40.282 8.41346 40.2218 8.25544C40.1617 8.09742 40.1339 7.92896 40.14 7.76V7.36C40.1339 7.19105 40.1617 7.02258 40.2218 6.86456C40.282 6.70655 40.3731 6.56218 40.49 6.44C40.6481 6.30645 40.8312 6.20582 41.0287 6.144C41.2262 6.08218 41.434 6.06042 41.64 6.08C41.8444 6.06205 42.0503 6.08461 42.2459 6.14639C42.4415 6.20816 42.623 6.30794 42.78 6.44C42.8996 6.56071 42.9932 6.70459 43.0551 6.8628C43.117 7.02101 43.1459 7.19021 43.14 7.36V7.76C43.1459 7.92979 43.117 8.099 43.0551 8.25721C42.9932 8.41542 42.8996 8.5593 42.78 8.68C42.623 8.81206 42.4415 8.91184 42.2459 8.97362C42.0503 9.03539 41.8444 9.05795 41.64 9.04ZM40.36 10.56H42.92V21H40.36V10.56ZM49.14 21C48.7758 21.0256 48.4102 20.9777 48.0649 20.8592C47.7196 20.7406 47.4017 20.5539 47.13 20.31C46.8883 20.045 46.7027 19.7339 46.5841 19.3954C46.4655 19.0569 46.4165 18.6979 46.44 18.34V12.6H44.9V10.56H45.7C45.8435 10.5778 45.9892 10.5627 46.1261 10.5159C46.2629 10.4691 46.3874 10.3919 46.49 10.29C46.6469 10.0503 46.7207 9.76572 46.7 9.48V7.7H49V10.56H51.14V12.6H49V18.96H50.98V21H49.14ZM56.5 21C56.1358 21.0256 55.7702 20.9777 55.4249 20.8592C55.0796 20.7406 54.7617 20.5539 54.49 20.31C54.2483 20.045 54.0627 19.7339 53.9441 19.3954C53.8255 19.0569 53.7765 18.6979 53.8 18.34V12.6H52.26V10.56H53.06C53.2035 10.5778 53.3492 10.5627 53.4861 10.5159C53.6229 10.4691 53.7474 10.3919 53.85 10.29C54.0069 10.0503 54.0807 9.76572 54.06 9.48V7.7H56.36V10.56H58.5V12.6H56.36V18.96H58.34V21H56.5ZM63.28 21C62.9286 21.0303 62.5747 20.9872 62.2407 20.8736C61.9068 20.76 61.6001 20.5783 61.34 20.34C60.8997 19.824 60.6773 19.157 60.72 18.48V6.2H63.28V18.96H64.66V21H63.28ZM70.82 21.24C70.1106 21.2523 69.4062 21.1196 68.75 20.85C68.1611 20.6027 67.6349 20.2269 67.21 19.75C66.7738 19.2481 66.4438 18.663 66.24 18.03C66.0041 17.2968 65.8893 16.5301 65.9 15.76C65.8899 15.0005 66.0013 14.2443 66.23 13.52C66.4285 12.8919 66.7516 12.3104 67.18 11.81C67.5975 11.3337 68.117 10.9577 68.7 10.71C69.3459 10.441 70.0404 10.3082 70.74 10.32C71.4689 10.3028 72.1927 10.4462 72.86 10.74C73.4348 11.0005 73.9414 11.3907 74.34 11.88C74.7348 12.3755 75.0302 12.9425 75.21 13.55C75.407 14.2085 75.5047 14.8927 75.5 15.58V16.42H68.56V16.68C68.5277 17.3499 68.7572 18.0062 69.2 18.51C69.45 18.7527 69.7486 18.9396 70.0761 19.0585C70.4036 19.1775 70.7525 19.2257 71.1 19.2C71.6512 19.2235 72.1972 19.0844 72.67 18.8C73.0876 18.5231 73.456 18.1783 73.76 17.78L75.14 19.32C74.6923 19.9371 74.0882 20.4238 73.39 20.73C72.5804 21.0841 71.7035 21.2582 70.82 21.24ZM70.78 12.24C70.4765 12.2263 70.1737 12.2802 69.8935 12.3978C69.6133 12.5154 69.3628 12.6937 69.16 12.92C68.7467 13.4108 68.5325 14.0389 68.56 14.68V14.84H72.84V14.66C72.8691 14.0332 72.682 13.4154 72.31 12.91C72.1262 12.6852 71.8916 12.5073 71.6256 12.3908C71.3597 12.2744 71.0698 12.2227 70.78 12.24ZM83.76 9.04C83.554 9.05959 83.3462 9.03783 83.1487 8.97601C82.9512 8.91419 82.7681 8.81355 82.61 8.68C82.4931 8.55782 82.402 8.41346 82.3418 8.25544C82.2817 8.09742 82.2539 7.92896 82.26 7.76V7.36C82.2539 7.19105 82.2817 7.02258 82.3418 6.86456C82.402 6.70655 82.4931 6.56218 82.61 6.44C82.7681 6.30645 82.9512 6.20582 83.1487 6.144C83.3462 6.08218 83.554 6.06042 83.76 6.08C83.9644 6.06205 84.1702 6.08461 84.3659 6.14639C84.5615 6.20816 84.743 6.30794 84.9 6.44C85.0196 6.56071 85.1132 6.70459 85.1751 6.8628C85.237 7.02101 85.2659 7.19021 85.26 7.36V7.76C85.2659 7.92979 85.237 8.099 85.1751 8.25721C85.1132 8.41542 85.0196 8.5593 84.9 8.68C84.743 8.81206 84.5615 8.91184 84.3659 8.97362C84.1702 9.03539 83.9644 9.05795 83.76 9.04ZM82.48 10.56H85.04V21H82.48V10.56ZM88 21V10.56H90.56V12.3H90.66C90.8667 11.7493 91.2151 11.2629 91.67 10.89C92.2199 10.4814 92.8961 10.2796 93.58 10.32C94.0474 10.2915 94.5149 10.3725 94.9455 10.5565C95.376 10.7405 95.7576 11.0225 96.06 11.38C96.6857 12.2577 96.9894 13.3244 96.92 14.4V21H94.36V14.66C94.4009 14.0723 94.2613 13.4862 93.96 12.98C93.8036 12.7846 93.6011 12.6311 93.3707 12.5333C93.1403 12.4356 92.8892 12.3966 92.64 12.42C92.3794 12.4191 92.12 12.4562 91.87 12.53C91.6334 12.5984 91.4102 12.7066 91.21 12.85C91.0183 12.9882 90.8581 13.1654 90.74 13.37C90.6159 13.5929 90.5537 13.845 90.56 14.1V21H88ZM101.84 21L98.36 10.56H100.88L102.34 15.06L103.36 18.78H103.5L104.52 15.06L105.94 10.56H108.38L104.88 21H101.84ZM114.14 21.24C113.431 21.2523 112.726 21.1196 112.07 20.85C111.481 20.6027 110.955 20.2269 110.53 19.75C110.094 19.2481 109.764 18.663 109.56 18.03C109.324 17.2968 109.209 16.5301 109.22 15.76C109.21 15.0005 109.321 14.2443 109.55 13.52C109.749 12.8919 110.072 12.3104 110.5 11.81C110.917 11.3337 111.437 10.9577 112.02 10.71C112.666 10.441 113.36 10.3082 114.06 10.32C114.789 10.3028 115.513 10.4462 116.18 10.74C116.755 11.0005 117.261 11.3907 117.66 11.88C118.055 12.3755 118.35 12.9425 118.53 13.55C118.727 14.2085 118.825 14.8927 118.82 15.58V16.42H111.88V16.68C111.848 17.3499 112.077 18.0062 112.52 18.51C112.77 18.7527 113.069 18.9396 113.396 19.0585C113.724 19.1775 114.073 19.2257 114.42 19.2C114.971 19.2235 115.517 19.0844 115.99 18.8C116.408 18.5231 116.776 18.1783 117.08 17.78L118.46 19.32C118.012 19.9371 117.408 20.4238 116.71 20.73C115.9 21.0841 115.023 21.2582 114.14 21.24ZM114.1 12.24C113.796 12.2263 113.494 12.2802 113.214 12.3978C112.933 12.5154 112.683 12.6937 112.48 12.92C112.067 13.4108 111.853 14.0389 111.88 14.68V14.84H116.16V14.66C116.189 14.0332 116.002 13.4154 115.63 12.91C115.446 12.6852 115.212 12.5073 114.946 12.3908C114.68 12.2744 114.39 12.2227 114.1 12.24ZM124.5 21.24C123.632 21.2677 122.769 21.0931 121.98 20.73C121.292 20.3841 120.68 19.9048 120.18 19.32L121.74 17.8C122.1 18.2179 122.529 18.5699 123.01 18.84C123.499 19.1004 124.046 19.2312 124.6 19.22C125.066 19.2589 125.533 19.1467 125.93 18.9C126.064 18.7969 126.171 18.6631 126.242 18.51C126.314 18.3568 126.347 18.1888 126.34 18.02C126.347 17.8847 126.324 17.7495 126.274 17.6236C126.224 17.4977 126.148 17.3839 126.05 17.29C125.763 17.0726 125.419 16.9439 125.06 16.92L124.02 16.78C123.082 16.7094 122.184 16.3729 121.43 15.81C121.125 15.5364 120.887 15.197 120.733 14.8176C120.578 14.4382 120.513 14.0286 120.54 13.62C120.533 13.1484 120.628 12.6809 120.82 12.25C121.004 11.8469 121.278 11.4912 121.62 11.21C121.99 10.911 122.414 10.6868 122.87 10.55C123.398 10.3906 123.948 10.3131 124.5 10.32C124.952 10.3154 125.404 10.3523 125.85 10.43C126.218 10.4956 126.577 10.603 126.92 10.75C127.234 10.8863 127.529 11.061 127.8 11.27C128.074 11.4834 128.335 11.7138 128.58 11.96L127.08 13.46C126.762 13.1319 126.39 12.8612 125.98 12.66C125.545 12.4447 125.065 12.3351 124.58 12.34C124.155 12.3033 123.729 12.4088 123.37 12.64C123.252 12.7319 123.156 12.8504 123.092 12.9859C123.028 13.1214 122.996 13.2701 123 13.42C122.99 13.5664 123.013 13.7132 123.066 13.8499C123.12 13.9865 123.203 14.1095 123.31 14.21C123.619 14.4307 123.982 14.5652 124.36 14.6L125.42 14.74C127.673 15.06 128.8 16.0867 128.8 17.82C128.806 18.3011 128.7 18.7769 128.49 19.21C128.283 19.6299 127.986 19.9987 127.62 20.29C127.217 20.6053 126.76 20.8427 126.27 20.99C125.696 21.1635 125.099 21.2478 124.5 21.24ZM134.16 21C133.796 21.0256 133.43 20.9777 133.085 20.8592C132.74 20.7406 132.422 20.5539 132.15 20.31C131.908 20.045 131.723 19.7339 131.604 19.3954C131.486 19.0569 131.437 18.6979 131.46 18.34V12.6H129.92V10.56H130.72C130.864 10.5778 131.009 10.5627 131.146 10.5159C131.283 10.4691 131.407 10.3919 131.51 10.29C131.667 10.0503 131.741 9.76573 131.72 9.48V7.7H134.02V10.56H136.16V12.6H134.02V18.96H136V21H134.16Z" fill="black"/>
<path d="M20 1H4C2.34315 1 1 2.34315 1 4V23C1 24.6569 2.34315 26 4 26H20C21.6569 26 23 24.6569 23 23V4C23 2.34315 21.6569 1 20 1Z" stroke="black" stroke-width="2"/>
<path d="M11.36 22.24V20.52C10.4611 20.4738 9.58493 20.2206 8.8 19.78C8.11934 19.3774 7.51093 18.8636 7 18.26L8.46 16.94C8.84072 17.4173 9.2967 17.8294 9.81 18.16C10.3235 18.476 10.9007 18.6741 11.5 18.74V14.26C10.3528 14.0896 9.27391 13.609 8.38 12.87C8.05832 12.5509 7.80678 12.1682 7.64148 11.7463C7.47617 11.3244 7.40074 10.8727 7.42 10.42C7.39828 9.94463 7.48207 9.47036 7.66533 9.0312C7.8486 8.59205 8.12681 8.19891 8.48 7.88C9.29706 7.208 10.3044 6.80928 11.36 6.74V5H13.06V6.74C13.8393 6.79843 14.5983 7.01626 15.29 7.38C15.9322 7.73426 16.494 8.21776 16.94 8.8L15.46 10.02C15.1704 9.63683 14.8149 9.30835 14.41 9.05C13.9614 8.77463 13.4611 8.59424 12.94 8.52V12.62L13.02 12.64C13.6622 12.7963 14.2908 13.0036 14.9 13.26C15.364 13.4515 15.7932 13.7184 16.17 14.05C16.4864 14.3349 16.7299 14.6916 16.88 15.09C17.0344 15.5299 17.1089 15.9939 17.1 16.46C17.1145 16.9574 17.0291 17.4527 16.8487 17.9164C16.6684 18.3802 16.3968 18.8031 16.05 19.16C15.2359 19.9325 14.1793 20.3989 13.06 20.48V22.24H11.36ZM15 16.6C15.0176 16.1425 14.8603 15.6956 14.56 15.35C14.105 14.9397 13.5435 14.6659 12.94 14.56V18.72C13.5118 18.6528 14.0458 18.3999 14.46 18C14.6386 17.8143 14.7783 17.5948 14.8711 17.3544C14.9638 17.114 15.0076 16.8575 15 16.6ZM9.5 10.32C9.48327 10.5547 9.51851 10.7902 9.6032 11.0097C9.6879 11.2292 9.81997 11.4274 9.99 11.59C10.4352 11.9345 10.9507 12.1769 11.5 12.3V8.5C10.9589 8.55209 10.4446 8.76057 10.02 9.1C9.84841 9.25218 9.71276 9.44055 9.62283 9.65154C9.53291 9.86252 9.49095 10.0908 9.5 10.32Z" fill="black"/>
</g>
<defs>
<clipPath id="clip0">
<rect width="136.16" height="27" fill="white"/>
</clipPath>
</defs>
</svg>
