<svg width="325" height="325" viewBox="0 0 325 325" fill="none" xmlns="http://www.w3.org/2000/svg">
<path d="M292.142 173.712C292.127 154.314 287.77 135.164 279.392 117.668C271.013 100.171 258.825 84.7721 243.722 72.5987C228.618 60.4252 210.981 51.7863 192.104 47.3153C173.228 42.8444 153.59 42.6546 134.63 46.7601C115.671 50.8656 97.8703 59.1621 82.5341 71.0415C67.1979 82.9208 54.7147 98.0819 45.9997 115.413C37.2848 132.744 32.559 151.806 32.1688 171.201C31.7787 190.596 35.734 209.832 43.745 227.5H280.572C288.237 210.606 292.182 192.263 292.142 173.712Z" fill="#F0F2FF"/>
<path d="M33.7675 227.337H287.267" stroke="#4550E5" stroke-width="3" stroke-linecap="round" stroke-linejoin="round"/>
<path d="M19.1425 227.337H27.2675" stroke="#4550E5" stroke-width="3" stroke-linecap="round" stroke-linejoin="round"/>
<path d="M293.767 227.337H301.892" stroke="#4550E5" stroke-width="3" stroke-linecap="round" stroke-linejoin="round"/>
<path d="M162.857 281.255C191.128 281.255 214.045 278.971 214.045 276.153C214.045 273.335 191.128 271.05 162.857 271.05C134.587 271.05 111.67 273.335 111.67 276.153C111.67 278.971 134.587 281.255 162.857 281.255Z" fill="#F0F2FF"/>
<path d="M226.298 231.107V165.75C226.298 163.578 225.435 161.495 223.899 159.959C222.363 158.423 220.28 157.56 218.108 157.56H107.608C106.529 157.556 105.461 157.764 104.463 158.174C103.466 158.584 102.559 159.186 101.795 159.947C101.031 160.708 100.425 161.613 100.012 162.608C99.5979 163.604 99.385 164.672 99.385 165.75V231.107H226.298Z" fill="#D6DAFF"/>
<path d="M115.765 231.108L189.475 157.398H107.575C106.486 157.397 105.407 157.614 104.403 158.036C103.398 158.458 102.488 159.076 101.726 159.854C100.963 160.631 100.363 161.553 99.9611 162.566C99.5592 163.578 99.3634 164.661 99.385 165.75V231.108H115.765Z" fill="white"/>
<path d="M226.297 231.107V247.357C226.297 249.53 225.435 251.613 223.899 253.149C222.363 254.685 220.28 255.547 218.107 255.547H107.607C105.435 255.547 103.352 254.685 101.816 253.149C100.28 251.613 99.4175 249.53 99.4175 247.357V231.107H226.297Z" fill="white" stroke="#4550E5" stroke-width="3" stroke-linecap="round" stroke-linejoin="round"/>
<path d="M166.952 243.392C166.952 244.202 166.712 244.994 166.262 245.668C165.812 246.341 165.173 246.866 164.425 247.176C163.676 247.486 162.853 247.567 162.059 247.409C161.264 247.251 160.535 246.861 159.962 246.288C159.389 245.715 158.999 244.986 158.841 244.191C158.683 243.397 158.764 242.574 159.074 241.825C159.384 241.077 159.909 240.438 160.582 239.988C161.256 239.538 162.048 239.297 162.858 239.297C163.944 239.297 164.985 239.729 165.753 240.497C166.521 241.265 166.952 242.306 166.952 243.392Z" fill="#D6DAFF" stroke="#4550E5" stroke-width="3" stroke-linecap="round" stroke-linejoin="round"/>
<path d="M183.332 272.058H142.35L144.43 255.678H181.285L183.332 272.058Z" fill="white" stroke="#4550E5" stroke-width="3" stroke-linecap="round" stroke-linejoin="round"/>
<path d="M130.098 272.057H195.585" stroke="#4550E5" stroke-width="3" stroke-linecap="round" stroke-linejoin="round"/>
<path d="M226.298 231.107V165.75C226.298 163.578 225.435 161.495 223.899 159.959C222.363 158.423 220.28 157.56 218.108 157.56H107.608C106.529 157.556 105.461 157.764 104.463 158.174C103.466 158.584 102.559 159.186 101.795 159.947C101.031 160.708 100.425 161.613 100.012 162.608C99.5979 163.604 99.385 164.672 99.385 165.75V231.107H226.298Z" stroke="#4550E5" stroke-width="3" stroke-linecap="round" stroke-linejoin="round"/>
<path d="M187.427 194.252C187.427 199.112 185.986 203.862 183.287 207.903C180.587 211.943 176.75 215.092 172.26 216.952C167.77 218.812 162.83 219.298 158.064 218.35C153.298 217.402 148.92 215.062 145.484 211.626C142.048 208.19 139.708 203.812 138.76 199.046C137.812 194.28 138.298 189.339 140.158 184.85C142.017 180.36 145.167 176.523 149.207 173.823C153.248 171.123 157.998 169.682 162.857 169.682C166.084 169.682 169.279 170.318 172.26 171.553C175.241 172.787 177.95 174.597 180.231 176.879C182.513 179.16 184.322 181.869 185.557 184.85C186.792 187.831 187.427 191.026 187.427 194.252Z" fill="white"/>
<path d="M187.427 194.252C187.427 199.112 185.986 203.862 183.287 207.903C180.587 211.943 176.75 215.092 172.26 216.952C167.77 218.812 162.83 219.298 158.064 218.35C153.298 217.402 148.92 215.062 145.484 211.626C142.048 208.19 139.708 203.812 138.76 199.046C137.812 194.28 138.298 189.339 140.158 184.85C142.017 180.36 145.167 176.523 149.207 173.823C153.248 171.123 157.998 169.682 162.857 169.682C166.084 169.682 169.279 170.318 172.26 171.553C175.241 172.787 177.95 174.597 180.231 176.879C182.513 179.16 184.322 181.869 185.557 184.85C186.792 187.831 187.427 191.026 187.427 194.252V194.252Z" stroke="#4550E5" stroke-width="3" stroke-linecap="round" stroke-linejoin="round"/>
<path d="M158.763 208.585C157.954 208.59 157.154 208.434 156.406 208.128C155.658 207.821 154.979 207.369 154.408 206.798L146.25 198.608C145.186 197.44 144.612 195.907 144.649 194.328C144.685 192.748 145.329 191.244 146.446 190.126C147.564 189.009 149.068 188.366 150.648 188.329C152.227 188.292 153.76 188.866 154.928 189.93L158.795 193.765L168.773 183.788C169.94 182.723 171.473 182.15 173.052 182.186C174.632 182.223 176.137 182.867 177.254 183.984C178.371 185.101 179.015 186.606 179.051 188.185C179.088 189.765 178.514 191.297 177.45 192.465L163.118 206.798C162.547 207.37 161.868 207.823 161.12 208.13C160.372 208.437 159.571 208.592 158.763 208.585Z" fill="#D6DAFF"/>
<path d="M158.763 208.585C157.954 208.59 157.154 208.434 156.406 208.128C155.658 207.821 154.979 207.369 154.408 206.798L146.25 198.608C145.186 197.44 144.612 195.907 144.649 194.328C144.685 192.748 145.329 191.244 146.446 190.126C147.564 189.009 149.068 188.366 150.648 188.329C152.227 188.292 153.76 188.866 154.928 189.93L158.795 193.765L168.773 183.788C169.94 182.723 171.473 182.15 173.052 182.186C174.632 182.223 176.137 182.867 177.254 183.984C178.371 185.101 179.015 186.606 179.051 188.185C179.088 189.765 178.514 191.297 177.45 192.465L163.118 206.798C162.547 207.37 161.868 207.823 161.12 208.13C160.372 208.437 159.571 208.592 158.763 208.585V208.585Z" stroke="#4550E5" stroke-width="3" stroke-linecap="round" stroke-linejoin="round"/>
<path d="M79.5897 94.8416L7.36188 115.321C5.54868 115.835 4.49556 117.722 5.00967 119.535L16.5525 160.245C17.0666 162.058 18.9533 163.111 20.7665 162.597L92.9943 142.118C94.8075 141.604 95.8606 139.717 95.3465 137.904L83.8036 97.1938C83.2895 95.3806 81.4029 94.3275 79.5897 94.8416Z" fill="white"/>
<path d="M83.915 127.692L79.4625 111.93C77.368 112.521 75.1246 112.258 73.2239 111.198C71.3232 110.138 69.9202 108.368 69.3225 106.275L22.0675 119.665C22.6587 121.759 22.3954 124.003 21.3354 125.904C20.2754 127.804 18.5051 129.207 16.4125 129.805L20.865 145.567C21.8999 145.27 22.9835 145.179 24.0536 145.3C25.1237 145.422 26.1593 145.753 27.1012 146.275C28.043 146.798 28.8726 147.501 29.5425 148.344C30.2124 149.187 30.7093 150.154 31.005 151.19L78.26 137.8C77.6696 135.71 77.9338 133.471 78.9943 131.575C80.0548 129.68 81.8248 128.283 83.915 127.692Z" fill="white"/>
<path d="M58.045 126.49C58.4916 128.048 58.4659 129.704 57.9711 131.247C57.4763 132.79 56.5346 134.152 55.2654 135.16C53.9961 136.168 52.4563 136.777 50.8409 136.909C49.2255 137.042 47.6072 136.692 46.1907 135.904C44.7743 135.116 43.6235 133.926 42.8841 132.483C42.1446 131.041 41.8497 129.412 42.0368 127.802C42.2238 126.192 42.8843 124.673 43.9347 123.439C44.9851 122.205 46.3782 121.31 47.9375 120.867C50.0232 120.285 52.2545 120.548 54.1469 121.601C56.0394 122.654 57.4401 124.411 58.045 126.49Z" fill="#D6DAFF"/>
<path d="M58.045 126.49C58.4916 128.048 58.4659 129.704 57.9711 131.247C57.4763 132.79 56.5346 134.152 55.2654 135.16C53.9961 136.168 52.4563 136.777 50.8409 136.909C49.2255 137.042 47.6072 136.692 46.1907 135.904C44.7743 135.116 43.6235 133.926 42.8841 132.483C42.1446 131.041 41.8497 129.412 42.0368 127.802C42.2238 126.192 42.8843 124.673 43.9347 123.439C44.9851 122.205 46.3782 121.31 47.9375 120.867C50.0232 120.285 52.2545 120.548 54.1469 121.601C56.0394 122.654 57.4401 124.411 58.045 126.49Z" stroke="#4550E5" stroke-width="3" stroke-linecap="round" stroke-linejoin="round"/>
<path d="M83.915 127.692L79.4625 111.93C77.368 112.521 75.1246 112.258 73.2239 111.198C71.3231 110.138 69.9202 108.368 69.3225 106.275L22.0675 119.665C22.6587 121.759 22.3954 124.003 21.3354 125.904C20.2754 127.804 18.5051 129.207 16.4125 129.805L20.865 145.567C21.8999 145.27 22.9835 145.179 24.0536 145.3C25.1237 145.422 26.1593 145.753 27.1012 146.275C28.043 146.798 28.8726 147.501 29.5425 148.344C30.2124 149.187 30.7093 150.154 31.005 151.19L78.26 137.8C77.6696 135.71 77.9338 133.471 78.9943 131.575C80.0548 129.68 81.8248 128.283 83.915 127.692V127.692Z" stroke="#4550E5" stroke-width="3" stroke-linecap="round" stroke-linejoin="round"/>
<path d="M79.5897 94.8416L7.36188 115.321C5.54868 115.835 4.49556 117.722 5.00967 119.535L16.5525 160.245C17.0666 162.058 18.9533 163.111 20.7665 162.597L92.9943 142.118C94.8075 141.604 95.8606 139.717 95.3465 137.904L83.8036 97.1938C83.2895 95.3806 81.4029 94.3275 79.5897 94.8416Z" stroke="#4550E5" stroke-width="3" stroke-linecap="round" stroke-linejoin="round"/>
<path d="M301.665 161.655L243.913 145.113C243.051 144.869 242.247 144.458 241.545 143.903C240.843 143.347 240.258 142.659 239.823 141.877C239.388 141.094 239.112 140.234 239.011 139.345C238.909 138.456 238.985 137.555 239.233 136.695L248.983 102.57C249.226 101.709 249.637 100.904 250.192 100.202C250.748 99.5005 251.436 98.9153 252.218 98.4804C253.001 98.0455 253.861 97.7695 254.75 97.6682C255.64 97.5669 256.54 97.6423 257.4 97.8901L315.25 114.433C316.985 114.932 318.451 116.098 319.328 117.675C320.205 119.253 320.422 121.113 319.93 122.85L310.18 156.975C309.937 157.847 309.523 158.662 308.961 159.372C308.399 160.081 307.701 160.672 306.908 161.108C306.114 161.544 305.242 161.817 304.342 161.911C303.441 162.005 302.531 161.918 301.665 161.655Z" fill="white"/>
<path d="M319.511 124.168L248.649 103.876L246.394 111.749L317.256 132.042L319.511 124.168Z" fill="#D6DAFF"/>
<path d="M247.488 137.637L267.183 143.26" stroke="#4550E5" stroke-width="3" stroke-linecap="round" stroke-linejoin="round"/>
<path d="M307.124 137.645L252.009 121.862L249.755 129.735L304.869 145.518L307.124 137.645Z" fill="white"/>
<path d="M301.665 161.655L243.913 145.113C243.051 144.869 242.247 144.458 241.545 143.903C240.843 143.347 240.258 142.659 239.823 141.877C239.388 141.094 239.112 140.234 239.011 139.345C238.909 138.456 238.985 137.555 239.233 136.695L248.983 102.57C249.226 101.709 249.637 100.904 250.192 100.202C250.748 99.5005 251.436 98.9153 252.218 98.4804C253.001 98.0455 253.861 97.7695 254.75 97.6682C255.64 97.5669 256.54 97.6423 257.4 97.8901L315.25 114.433C316.985 114.932 318.451 116.098 319.328 117.675C320.205 119.253 320.422 121.113 319.93 122.85L310.18 156.975C309.937 157.847 309.523 158.662 308.961 159.372C308.399 160.081 307.701 160.672 306.908 161.108C306.114 161.544 305.242 161.817 304.342 161.911C303.441 162.005 302.531 161.918 301.665 161.655V161.655Z" stroke="#4550E5" stroke-width="3" stroke-linecap="round" stroke-linejoin="round"/>
<path d="M319.511 124.168L248.649 103.876L246.394 111.749L317.256 132.042L319.511 124.168Z" stroke="#4550E5" stroke-width="3" stroke-linecap="round" stroke-linejoin="round"/>
<path d="M307.124 137.645L252.009 121.862L249.755 129.735L304.869 145.518L307.124 137.645Z" stroke="#4550E5" stroke-width="3" stroke-linecap="round" stroke-linejoin="round"/>
<path d="M162.857 124.475C177.935 124.475 190.157 112.252 190.157 97.175C190.157 82.0976 177.935 69.875 162.857 69.875C147.78 69.875 135.557 82.0976 135.557 97.175C135.557 112.252 147.78 124.475 162.857 124.475Z" fill="#D6DAFF"/>
<path d="M162.858 69.875C157.458 69.8746 152.179 71.4755 147.689 74.4753C143.2 77.475 139.7 81.7388 137.634 86.7275C135.567 91.7161 135.027 97.2056 136.08 102.502C137.134 107.797 139.734 112.662 143.553 116.48L182.163 78C179.637 75.443 176.632 73.4091 173.319 72.0149C170.007 70.6207 166.452 69.8936 162.858 69.875Z" fill="white"/>
<path d="M162.857 124.475C177.935 124.475 190.157 112.252 190.157 97.175C190.157 82.0976 177.935 69.875 162.857 69.875C147.78 69.875 135.557 82.0976 135.557 97.175C135.557 112.252 147.78 124.475 162.857 124.475Z" stroke="#4550E5" stroke-width="3" stroke-miterlimit="10"/>
<path d="M162.857 110.825V114.237" stroke="#4550E5" stroke-width="3" stroke-linecap="round" stroke-linejoin="round"/>
<path d="M162.857 80.1125V83.525" stroke="#4550E5" stroke-width="3" stroke-linecap="round" stroke-linejoin="round"/>
<path d="M156 104C156 105.35 156.4 106.669 157.15 107.792C157.9 108.914 158.966 109.789 160.213 110.305C161.46 110.822 162.833 110.957 164.156 110.694C165.48 110.43 166.697 109.78 167.651 108.826C168.605 107.871 169.256 106.655 169.519 105.331C169.782 104.007 169.647 102.635 169.13 101.388C168.614 100.141 167.739 99.0751 166.617 98.3251C165.494 97.5752 164.175 97.1749 162.825 97.1749C161.475 97.1749 160.156 96.7746 159.033 96.0247C157.911 95.2747 157.036 94.2088 156.52 92.9617C156.003 91.7146 155.868 90.3423 156.131 89.0184C156.394 87.6945 157.044 86.4784 157.999 85.5239C158.953 84.5694 160.17 83.9194 161.494 83.656C162.817 83.3927 164.19 83.5279 165.437 84.0444C166.684 84.561 167.75 85.4358 168.5 86.5581C169.25 87.6805 169.65 89 169.65 90.3499" stroke="#4550E5" stroke-width="3" stroke-linecap="round" stroke-linejoin="round"/>
</svg>
