<svg width="325" height="325" viewBox="0 0 325 325" fill="none" xmlns="http://www.w3.org/2000/svg">
<path d="M294.125 181.772C294.123 162.373 289.78 143.22 281.413 125.717C273.046 108.215 260.869 92.8069 245.773 80.6229C230.677 68.4389 213.045 59.788 194.171 55.3044C175.297 50.8207 155.658 50.6181 136.696 54.7113C117.733 58.8045 99.9266 67.0898 84.5824 78.9596C69.2382 90.8295 56.7451 105.983 48.019 123.309C39.2929 140.635 34.5551 159.695 34.1529 179.09C33.7508 198.485 37.6946 217.725 45.695 235.397H282.555C290.194 218.553 294.139 200.268 294.125 181.772Z" fill="#F0F2FF"/>
<path d="M35.75 235.398H289.25" stroke="#4550E5" stroke-width="3" stroke-linecap="round" stroke-linejoin="round"/>
<path d="M21.125 235.398H29.25" stroke="#4550E5" stroke-width="3" stroke-linecap="round" stroke-linejoin="round"/>
<path d="M295.75 235.398H303.875" stroke="#4550E5" stroke-width="3" stroke-linecap="round" stroke-linejoin="round"/>
<path d="M222.137 134.193H88.5625C82.1008 134.193 76.8625 139.431 76.8625 145.892V234.617C76.8625 241.079 82.1008 246.317 88.5625 246.317H222.137C228.599 246.317 233.837 241.079 233.837 234.617V145.892C233.837 139.431 228.599 134.193 222.137 134.193Z" fill="#D6DAFF"/>
<path d="M171.795 134.193H90.3175C86.749 134.193 83.3267 135.61 80.8034 138.133C78.2801 140.657 76.8625 144.079 76.8625 147.647V229.125L171.795 134.193Z" fill="white"/>
<path d="M222.137 134.193H88.5625C82.1008 134.193 76.8625 139.431 76.8625 145.892V234.617C76.8625 241.079 82.1008 246.317 88.5625 246.317H222.137C228.599 246.317 233.837 241.079 233.837 234.617V145.892C233.837 139.431 228.599 134.193 222.137 134.193Z" stroke="#4550E5" stroke-width="3" stroke-linecap="round" stroke-linejoin="round"/>
<path d="M220.382 246.318C222.163 246.339 223.93 246.007 225.581 245.34C227.233 244.674 228.735 243.686 230.002 242.435C231.268 241.183 232.274 239.693 232.96 238.049C233.647 236.406 234 234.643 234 232.863V228.378H76.8625V232.863C76.8625 236.431 78.2801 239.853 80.8034 242.377C83.3267 244.9 86.749 246.318 90.3175 246.318H220.382Z" fill="white" stroke="#4550E5" stroke-width="3" stroke-linecap="round" stroke-linejoin="round"/>
<path d="M168.805 264.258H141.895L144.137 246.318H166.562L168.805 264.258Z" fill="white"/>
<path d="M168.805 264.258H141.895L144.137 246.318H166.562L168.805 264.258Z" stroke="#4550E5" stroke-width="3" stroke-linecap="round" stroke-linejoin="round"/>
<path d="M184.503 273.228H126.198C126.198 270.849 127.143 268.567 128.825 266.885C130.507 265.203 132.789 264.258 135.167 264.258H175.5C177.882 264.258 180.167 265.202 181.854 266.883C183.542 268.564 184.494 270.846 184.503 273.228Z" fill="white" stroke="#4550E5" stroke-width="3" stroke-linecap="round" stroke-linejoin="round"/>
<path d="M112.743 118.495H242.743V195.91C242.743 197.979 241.921 199.963 240.458 201.425C238.995 202.888 237.011 203.71 234.943 203.71H120.543C118.474 203.71 116.49 202.888 115.027 201.425C113.564 199.963 112.743 197.979 112.743 195.91V118.495Z" fill="white" stroke="#4550E5" stroke-width="3" stroke-linecap="round" stroke-linejoin="round"/>
<path d="M120.543 91.585H235.007C237.076 91.585 239.06 92.4067 240.523 93.8695C241.986 95.3323 242.808 97.3163 242.808 99.385V118.495H112.808V99.385C112.807 97.3275 113.62 95.3533 115.069 93.8924C116.518 92.4315 118.485 91.6021 120.543 91.585Z" fill="white" stroke="#4550E5" stroke-width="3" stroke-linecap="round" stroke-linejoin="round"/>
<path d="M126.198 109.525C128.675 109.525 130.683 107.517 130.683 105.04C130.683 102.563 128.675 100.555 126.198 100.555C123.721 100.555 121.712 102.563 121.712 105.04C121.712 107.517 123.721 109.525 126.198 109.525Z" fill="#D6DAFF" stroke="#4550E5" stroke-width="3" stroke-linecap="round" stroke-linejoin="round"/>
<path d="M144.137 109.525C146.614 109.525 148.622 107.517 148.622 105.04C148.622 102.563 146.614 100.555 144.137 100.555C141.661 100.555 139.653 102.563 139.653 105.04C139.653 107.517 141.661 109.525 144.137 109.525Z" fill="#D6DAFF" stroke="#4550E5" stroke-width="3" stroke-linecap="round" stroke-linejoin="round"/>
<path d="M162.077 109.525C164.554 109.525 166.562 107.517 166.562 105.04C166.562 102.563 164.554 100.555 162.077 100.555C159.6 100.555 157.592 102.563 157.592 105.04C157.592 107.517 159.6 109.525 162.077 109.525Z" fill="#D6DAFF" stroke="#4550E5" stroke-width="3" stroke-linecap="round" stroke-linejoin="round"/>
<path d="M167.798 145.405H156.358C154.563 145.405 153.108 146.86 153.108 148.655V160.095C153.108 161.89 154.563 163.345 156.358 163.345H167.798C169.592 163.345 171.048 161.89 171.048 160.095V148.655C171.048 146.86 169.592 145.405 167.798 145.405Z" fill="#D6DAFF" stroke="#4550E5" stroke-width="3" stroke-linecap="round" stroke-linejoin="round"/>
<path d="M196.95 145.405H185.51C183.715 145.405 182.26 146.86 182.26 148.655V160.095C182.26 161.89 183.715 163.345 185.51 163.345H196.95C198.745 163.345 200.2 161.89 200.2 160.095V148.655C200.2 146.86 198.745 145.405 196.95 145.405Z" fill="#D6DAFF" stroke="#4550E5" stroke-width="3" stroke-linecap="round" stroke-linejoin="round"/>
<path d="M226.102 145.405H214.663C212.868 145.405 211.413 146.86 211.413 148.655V160.095C211.413 161.89 212.868 163.345 214.663 163.345H226.102C227.897 163.345 229.352 161.89 229.352 160.095V148.655C229.352 146.86 227.897 145.405 226.102 145.405Z" fill="#D6DAFF" stroke="#4550E5" stroke-width="3" stroke-linecap="round" stroke-linejoin="round"/>
<path d="M167.798 172.315H156.358C154.563 172.315 153.108 173.77 153.108 175.565V187.005C153.108 188.8 154.563 190.255 156.358 190.255H167.798C169.592 190.255 171.048 188.8 171.048 187.005V175.565C171.048 173.77 169.592 172.315 167.798 172.315Z" fill="#D6DAFF" stroke="#4550E5" stroke-width="3" stroke-linecap="round" stroke-linejoin="round"/>
<path d="M196.95 172.315H185.51C183.715 172.315 182.26 173.77 182.26 175.565V187.005C182.26 188.8 183.715 190.255 185.51 190.255H196.95C198.745 190.255 200.2 188.8 200.2 187.005V175.565C200.2 173.77 198.745 172.315 196.95 172.315Z" fill="#D6DAFF" stroke="#4550E5" stroke-width="3" stroke-linecap="round" stroke-linejoin="round"/>
<path d="M226.102 172.315H214.663C212.868 172.315 211.413 173.77 211.413 175.565V187.005C211.413 188.8 212.868 190.255 214.663 190.255H226.102C227.897 190.255 229.352 188.8 229.352 187.005V175.565C229.352 173.77 227.897 172.315 226.102 172.315Z" fill="#D6DAFF" stroke="#4550E5" stroke-width="3" stroke-linecap="round" stroke-linejoin="round"/>
<path d="M140.887 127.465H129.448C127.653 127.465 126.198 128.92 126.198 130.715V133.185C126.198 134.98 127.653 136.435 129.448 136.435H140.887C142.682 136.435 144.137 134.98 144.137 133.185V130.715C144.137 128.92 142.682 127.465 140.887 127.465Z" fill="#D6DAFF" stroke="#4550E5" stroke-width="3" stroke-linecap="round" stroke-linejoin="round"/>
<path d="M226.102 127.465H156.358C154.563 127.465 153.108 128.92 153.108 130.715V133.185C153.108 134.98 154.563 136.435 156.358 136.435H226.102C227.897 136.435 229.352 134.98 229.352 133.185V130.715C229.352 128.92 227.897 127.465 226.102 127.465Z" fill="#D6DAFF" stroke="#4550E5" stroke-width="3" stroke-linejoin="round"/>
<path d="M126.198 145.405H144.137" stroke="#4550E5" stroke-width="3" stroke-linecap="round" stroke-linejoin="round"/>
<path d="M126.198 154.375H144.137" stroke="#4550E5" stroke-width="3" stroke-linecap="round" stroke-linejoin="round"/>
<path d="M126.198 163.345H144.137" stroke="#4550E5" stroke-width="3" stroke-linecap="round" stroke-linejoin="round"/>
<path d="M126.198 172.315H144.137" stroke="#4550E5" stroke-width="3" stroke-linecap="round" stroke-linejoin="round"/>
<path d="M126.198 181.285H144.137" stroke="#4550E5" stroke-width="3" stroke-linecap="round" stroke-linejoin="round"/>
<path d="M126.198 190.255H137.41" stroke="#4550E5" stroke-width="3" stroke-linecap="round" stroke-linejoin="round"/>
<path d="M271.96 239.362C271.31 241.735 270.01 241.8 269.068 239.362L254.345 204.23C253.403 201.955 254.345 200.98 256.783 201.825L292.078 216.515C294.353 217.49 294.255 218.79 291.882 219.44L280.573 222.69C279.291 223.118 278.125 223.837 277.167 224.789C276.209 225.742 275.483 226.903 275.047 228.182L271.96 239.362Z" fill="white" stroke="#4550E5" stroke-width="3" stroke-linejoin="round"/>
<path d="M155.35 239.232C156.391 239.232 157.235 238.388 157.235 237.347C157.235 236.306 156.391 235.462 155.35 235.462C154.309 235.462 153.465 236.306 153.465 237.347C153.465 238.388 154.309 239.232 155.35 239.232Z" stroke="#4550E5" stroke-width="3" stroke-linecap="round" stroke-linejoin="round"/>
</svg>
