<svg width="325" height="325" viewBox="0 0 325 325" fill="none" xmlns="http://www.w3.org/2000/svg">
<path d="M292.5 179.53C292.498 160.131 288.155 140.978 279.788 123.475C271.421 105.973 259.243 90.5645 244.147 78.3805C229.051 66.1966 211.42 57.5456 192.546 53.062C173.672 48.5784 154.033 48.3757 135.071 52.4689C116.108 56.5621 98.3016 64.8474 82.9574 76.7173C67.6132 88.5871 55.12 103.741 46.394 121.067C37.6679 138.393 32.9301 157.452 32.5279 176.847C32.1258 196.243 36.0696 215.482 44.07 233.155H280.93C288.572 216.311 292.517 198.026 292.5 179.53Z" fill="#F0F2FF"/>
<path d="M35.75 233.155H289.25" stroke="#4550E5" stroke-width="3" stroke-linecap="round" stroke-linejoin="round"/>
<path d="M21.125 233.155H29.25" stroke="#4550E5" stroke-width="3" stroke-linecap="round" stroke-linejoin="round"/>
<path d="M295.75 233.155H303.875" stroke="#4550E5" stroke-width="3" stroke-linecap="round" stroke-linejoin="round"/>
<path d="M160.648 275.437C187.302 275.437 208.91 272.949 208.91 269.88C208.91 266.811 187.302 264.322 160.648 264.322C133.993 264.322 112.385 266.811 112.385 269.88C112.385 272.949 133.993 275.437 160.648 275.437Z" fill="#F0F2FF"/>
<path d="M234.91 140.075C234.91 138.527 234.605 136.995 234.011 135.565C233.418 134.136 232.549 132.837 231.453 131.744C230.357 130.651 229.056 129.786 227.625 129.196C226.194 128.607 224.66 128.306 223.113 128.31H101.887C100.34 128.306 98.8064 128.607 97.3752 129.196C95.9441 129.786 94.6433 130.651 93.5474 131.744C92.4514 132.837 91.5819 134.136 90.9887 135.565C90.3954 136.995 90.09 138.527 90.09 140.075V220.447H234.91V140.075Z" fill="#D6DAFF"/>
<path d="M186.843 128.31H101.887C100.34 128.306 98.8064 128.607 97.3752 129.196C95.9441 129.786 94.6433 130.651 93.5474 131.744C92.4514 132.837 91.5819 134.136 90.9887 135.565C90.3954 136.995 90.09 138.527 90.09 140.075V220.447H94.705L186.843 128.31Z" fill="white"/>
<path d="M180.05 255.547H144.95L147.128 237.997H177.873L180.05 255.547Z" fill="white"/>
<path d="M180.05 255.547H144.95L147.128 237.997H177.873L180.05 255.547Z" stroke="#4550E5" stroke-width="3" stroke-linecap="round" stroke-linejoin="round"/>
<path d="M187.622 264.322H137.377C136.924 264.327 136.476 264.218 136.076 264.005C135.675 263.793 135.333 263.484 135.081 263.107C134.83 262.73 134.676 262.295 134.634 261.844C134.593 261.392 134.664 260.937 134.842 260.52C135.558 259.032 136.678 257.776 138.075 256.897C139.472 256.017 141.089 255.55 142.74 255.547H182.26C183.911 255.55 185.528 256.017 186.925 256.897C188.322 257.776 189.442 259.032 190.157 260.52C190.336 260.937 190.407 261.392 190.365 261.844C190.324 262.295 190.17 262.73 189.919 263.107C189.667 263.484 189.325 263.793 188.924 264.005C188.523 264.218 188.076 264.327 187.622 264.322Z" fill="white" stroke="#4550E5" stroke-width="3" stroke-linecap="round" stroke-linejoin="round"/>
<path d="M223.113 237.997C224.66 238.002 226.194 237.7 227.625 237.111C229.056 236.522 230.357 235.656 231.453 234.563C232.549 233.47 233.418 232.172 234.011 230.742C234.605 229.313 234.91 227.78 234.91 226.232V220.447H90.09V226.232C90.09 227.78 90.3954 229.313 90.9887 230.742C91.5819 232.172 92.4514 233.47 93.5474 234.563C94.6433 235.656 95.9441 236.522 97.3752 237.111C98.8064 237.7 100.34 238.002 101.887 237.997H223.113Z" fill="white" stroke="#4550E5" stroke-width="3" stroke-linecap="round" stroke-linejoin="round"/>
<path d="M234.91 140.075C234.91 138.527 234.605 136.995 234.011 135.565C233.418 134.136 232.549 132.837 231.453 131.744C230.357 130.651 229.056 129.786 227.625 129.196C226.194 128.607 224.66 128.306 223.113 128.31H101.887C100.34 128.306 98.8064 128.607 97.3752 129.196C95.9441 129.786 94.6433 130.651 93.5474 131.744C92.4514 132.837 91.5819 134.136 90.9887 135.565C90.3954 136.995 90.09 138.527 90.09 140.075V220.447H234.91V140.075Z" stroke="#4550E5" stroke-width="3" stroke-linecap="round" stroke-linejoin="round"/>
<path d="M164.45 229.223C164.45 229.608 164.336 229.985 164.121 230.306C163.907 230.627 163.603 230.877 163.246 231.024C162.89 231.172 162.498 231.21 162.12 231.135C161.741 231.06 161.394 230.874 161.121 230.601C160.848 230.329 160.663 229.981 160.587 229.603C160.512 229.225 160.551 228.833 160.698 228.476C160.846 228.12 161.096 227.815 161.417 227.601C161.737 227.387 162.114 227.273 162.5 227.273C163.017 227.273 163.513 227.478 163.879 227.844C164.245 228.209 164.45 228.705 164.45 229.223V229.223Z" stroke="#4550E5" stroke-width="3" stroke-linecap="round" stroke-linejoin="round"/>
<path d="M206.017 189.118C206.026 191.189 205.214 193.18 203.758 194.654C202.302 196.128 200.322 196.965 198.25 196.983H126.75C124.756 196.854 122.885 195.971 121.518 194.514C120.151 193.056 119.39 191.132 119.39 189.134C119.39 187.135 120.151 185.212 121.518 183.754C122.885 182.296 124.756 181.413 126.75 181.285H198.25C200.316 181.302 202.292 182.135 203.746 183.602C205.201 185.069 206.018 187.051 206.017 189.118Z" fill="#D6DAFF" stroke="#4550E5" stroke-width="3" stroke-linejoin="round"/>
<path d="M179.205 181.285H126.75C124.756 181.413 122.885 182.296 121.518 183.754C120.151 185.212 119.39 187.135 119.39 189.134C119.39 191.132 120.151 193.056 121.518 194.514C122.885 195.971 124.756 196.854 126.75 196.983H179.205V181.285Z" fill="white" stroke="#4550E5" stroke-width="3" stroke-linejoin="round"/>
<path d="M179.205 181.285H126.75C124.756 181.413 122.885 182.296 121.518 183.754C120.151 185.212 119.39 187.135 119.39 189.134C119.39 191.132 120.151 193.056 121.518 194.514C122.885 195.971 124.756 196.854 126.75 196.983H179.205V181.285Z" stroke="#4550E5" stroke-width="3" stroke-linejoin="round"/>
<path d="M137.183 75.855C136.441 75.8412 135.71 76.0359 135.073 76.4169C134.436 76.7978 133.919 77.3498 133.581 78.01C133.242 78.6703 133.096 79.4123 133.158 80.1516C133.22 80.891 133.488 81.5981 133.933 82.1925L159.25 114.985C159.621 115.458 160.095 115.84 160.635 116.104C161.176 116.367 161.769 116.503 162.37 116.503C162.971 116.503 163.564 116.367 164.105 116.104C164.645 115.84 165.119 115.458 165.49 114.985L190.808 82.1925C191.252 81.5981 191.52 80.891 191.582 80.1516C191.644 79.4123 191.498 78.6703 191.159 78.01C190.821 77.3498 190.304 76.7978 189.667 76.4169C189.03 76.0359 188.299 75.8412 187.558 75.855H177.808V57.655C177.808 55.5777 176.982 53.5855 175.513 52.1166C174.045 50.6477 172.052 49.8225 169.975 49.8225H154.635C152.558 49.8225 150.565 50.6477 149.097 52.1166C147.628 53.5855 146.803 55.5777 146.803 57.655V75.855H137.183Z" fill="white"/>
<path d="M137.183 75.855C136.441 75.8412 135.71 76.0359 135.073 76.4169C134.436 76.7978 133.919 77.3498 133.581 78.01C133.242 78.6703 133.096 79.4123 133.158 80.1516C133.22 80.891 133.488 81.5981 133.933 82.1925L159.25 114.985C159.621 115.458 160.095 115.84 160.635 116.104C161.176 116.367 161.769 116.503 162.37 116.503C162.971 116.503 163.564 116.367 164.105 116.104C164.645 115.84 165.119 115.458 165.49 114.985L190.808 82.1925C191.252 81.5981 191.52 80.891 191.582 80.1516C191.644 79.4123 191.498 78.6703 191.159 78.01C190.821 77.3498 190.304 76.7978 189.667 76.4169C189.03 76.0359 188.299 75.8412 187.558 75.855H177.808V57.655C177.808 55.5777 176.982 53.5855 175.513 52.1166C174.045 50.6477 172.052 49.8225 169.975 49.8225H154.635C152.558 49.8225 150.565 50.6477 149.097 52.1166C147.628 53.5855 146.803 55.5777 146.803 57.655V75.855H137.183Z" stroke="#4550E5" stroke-width="3" stroke-linejoin="round"/>
</svg>
