<svg width="594" height="594" viewBox="0 0 594 594" fill="none" xmlns="http://www.w3.org/2000/svg">
<path d="M534.6 318.859C534.597 283.403 526.658 248.397 511.366 216.408C496.075 184.419 473.817 156.258 446.226 133.989C418.636 111.72 386.411 95.9092 351.914 87.7145C317.418 79.5198 281.525 79.1495 246.867 86.6306C212.209 94.1117 179.665 109.255 151.621 130.949C123.576 152.644 100.743 180.339 84.7939 212.006C68.8453 243.673 60.186 278.508 59.4511 313.956C58.7161 349.405 65.9241 384.569 80.5464 416.869H513.454C527.415 386.082 534.625 352.664 534.6 318.859Z" fill="#F0F2FF"/>
<path d="M65.34 416.869H528.66" stroke="#4550E5" stroke-width="5" stroke-linecap="round" stroke-linejoin="round"/>
<path d="M38.61 416.869H53.46" stroke="#4550E5" stroke-width="5" stroke-linecap="round" stroke-linejoin="round"/>
<path d="M540.54 416.869H555.39" stroke="#4550E5" stroke-width="5" stroke-linecap="round" stroke-linejoin="round"/>
<path d="M380.932 259.043L402.257 298.129C404.641 302.502 405.887 307.404 405.88 312.385V383.665L410.692 388.535C412.923 390.753 414.183 393.765 414.196 396.911V416.929H380.932V259.043Z" fill="#D6DAFF" stroke="#4550E5" stroke-width="5" stroke-linecap="round" stroke-linejoin="round"/>
<path d="M389.248 371.309H410.038" stroke="#4550E5" stroke-width="5" stroke-linecap="round" stroke-linejoin="round"/>
<path d="M164.716 259.043L143.392 298.129C141.008 302.502 139.762 307.404 139.768 312.385V383.665L134.897 388.535C132.688 390.763 131.45 393.774 131.452 396.911V416.929H164.716V259.043Z" fill="#D6DAFF" stroke="#4550E5" stroke-width="5" stroke-linecap="round" stroke-linejoin="round"/>
<path d="M469.26 132.759C468.036 132.754 466.824 132.997 465.696 133.472C465.115 129.539 463.139 125.947 460.129 123.349C457.12 120.752 453.277 119.323 449.302 119.323C445.326 119.323 441.483 120.752 438.474 123.349C435.464 125.947 433.488 129.539 432.907 133.472C431.779 132.997 430.567 132.754 429.343 132.759C426.696 132.759 424.158 133.81 422.287 135.682C420.415 137.553 419.364 140.092 419.364 142.738C419.364 145.385 420.415 147.923 422.287 149.795C424.158 151.666 426.696 152.717 429.343 152.717H469.26C471.907 152.717 474.445 151.666 476.316 149.795C478.188 147.923 479.239 145.385 479.239 142.738C479.239 140.092 478.188 137.553 476.316 135.682C474.445 133.81 471.907 132.759 469.26 132.759Z" fill="white"/>
<path d="M469.26 132.759C468.036 132.754 466.824 132.997 465.696 133.472C465.115 129.539 463.139 125.947 460.129 123.349C457.12 120.752 453.277 119.323 449.302 119.323C445.326 119.323 441.483 120.752 438.474 123.349C435.464 125.947 433.488 129.539 432.907 133.472C431.779 132.997 430.567 132.754 429.343 132.759C426.696 132.759 424.158 133.81 422.287 135.682C420.415 137.553 419.364 140.092 419.364 142.738C419.364 145.385 420.415 147.923 422.287 149.795C424.158 151.666 426.696 152.717 429.343 152.717H469.26C471.907 152.717 474.445 151.666 476.316 149.795C478.188 147.923 479.239 145.385 479.239 142.738C479.239 140.092 478.188 137.553 476.316 135.682C474.445 133.81 471.907 132.759 469.26 132.759V132.759Z" stroke="#4550E5" stroke-width="5" stroke-linejoin="round"/>
<path d="M314.404 101.039V204.989H231.244V101.039H156.4V371.309L160.558 375.467V392.099L156.4 396.257V417.047H389.248V392.099L385.09 387.941V375.467L389.248 371.309V101.039H314.404Z" fill="white"/>
<path d="M469.26 132.759C468.036 132.754 466.824 132.997 465.696 133.472C465.115 129.539 463.139 125.947 460.129 123.349C457.12 120.752 453.277 119.323 449.302 119.323C445.326 119.323 441.483 120.752 438.474 123.349C435.464 125.947 433.488 129.539 432.907 133.472C431.779 132.997 430.567 132.754 429.343 132.759C426.696 132.759 424.158 133.81 422.287 135.682C420.415 137.553 419.364 140.092 419.364 142.738C419.364 145.385 420.415 147.923 422.287 149.795C424.158 151.666 426.696 152.717 429.343 152.717H469.26C471.907 152.717 474.445 151.666 476.316 149.795C478.188 147.923 479.239 145.385 479.239 142.738C479.239 140.092 478.188 137.553 476.316 135.682C474.445 133.81 471.907 132.759 469.26 132.759V132.759Z" stroke="#4550E5" stroke-width="5" stroke-linejoin="round"/>
<path d="M314.404 101.039V204.989H231.244V101.039H156.4V371.309L160.558 375.467V392.099L156.4 396.257V417.047H389.248V392.099L385.09 387.941V375.467L389.248 371.309V101.039H314.404Z" stroke="#4550E5" stroke-width="5" stroke-linecap="round" stroke-linejoin="round"/>
<path d="M389.248 313.097H156.4V338.045H389.248V313.097Z" fill="#D6DAFF" stroke="#4550E5" stroke-width="5" stroke-linecap="round" stroke-linejoin="round"/>
<path d="M393.703 204.989H151.886C151.514 204.994 151.15 205.097 150.832 205.29C150.514 205.483 150.254 205.757 150.078 206.085C149.902 206.412 149.817 206.781 149.832 207.153C149.847 207.524 149.961 207.885 150.163 208.197C154.104 214.278 156.17 221.384 156.103 228.631V238.253H388.951V228.631C388.881 221.384 390.947 214.277 394.891 208.197C395.084 207.922 395.208 207.603 395.251 207.27C395.294 206.936 395.255 206.597 395.138 206.282C395.022 205.966 394.83 205.684 394.58 205.459C394.33 205.234 394.029 205.073 393.703 204.989Z" fill="#D6DAFF" stroke="#4550E5" stroke-width="5" stroke-linecap="round" stroke-linejoin="round"/>
<path d="M272.824 354.677C266.688 357.134 261.428 361.372 257.722 366.846C254.017 372.319 252.035 378.777 252.034 385.387V417.047H293.614V385.387C293.597 378.781 291.609 372.33 287.906 366.859C284.203 361.389 278.951 357.147 272.824 354.677Z" fill="#D6DAFF" stroke="#4550E5" stroke-width="5" stroke-linecap="round" stroke-linejoin="round"/>
<path d="M193.822 362.993C188.521 366.118 184.171 370.628 181.241 376.038C178.311 381.449 176.91 387.556 177.19 393.703V417.047H210.454V393.703C210.721 387.558 209.315 381.456 206.386 376.048C203.457 370.639 199.115 366.127 193.822 362.993Z" fill="#D6DAFF" stroke="#4550E5" stroke-width="5" stroke-linecap="round" stroke-linejoin="round"/>
<path d="M193.822 259.043C188.521 262.168 184.171 266.678 181.241 272.088C178.311 277.499 176.91 283.606 177.19 289.753V313.097H210.454V289.753C210.721 283.608 209.315 277.506 206.386 272.098C203.457 266.689 199.115 262.177 193.822 259.043Z" fill="#D6DAFF" stroke="#4550E5" stroke-width="5" stroke-linecap="round" stroke-linejoin="round"/>
<path d="M351.826 259.043C346.525 262.168 342.175 266.678 339.245 272.088C336.315 277.499 334.914 283.606 335.194 289.753V313.097H368.28V289.753C368.565 283.626 367.186 277.536 364.289 272.129C361.392 266.722 357.085 262.2 351.826 259.043Z" fill="#D6DAFF" stroke="#4550E5" stroke-width="5" stroke-linecap="round" stroke-linejoin="round"/>
<path d="M351.826 362.993C346.525 366.118 342.175 370.628 339.245 376.038C336.315 381.449 334.914 387.556 335.194 393.703V417.047H368.28V393.703C368.565 387.576 367.186 381.486 364.289 376.079C361.392 370.672 357.085 366.15 351.826 362.993Z" fill="#D6DAFF" stroke="#4550E5" stroke-width="5" stroke-linecap="round" stroke-linejoin="round"/>
<path d="M231.244 313.097V367.151" stroke="#4550E5" stroke-width="5" stroke-linecap="round" stroke-linejoin="round"/>
<path d="M314.404 313.097V367.151" stroke="#4550E5" stroke-width="5" stroke-linecap="round" stroke-linejoin="round"/>
<path d="M231.244 238.253V259.043" stroke="#4550E5" stroke-width="5" stroke-linecap="round" stroke-linejoin="round"/>
<path d="M314.404 238.253V259.043" stroke="#4550E5" stroke-width="5" stroke-linecap="round" stroke-linejoin="round"/>
<path d="M272.824 250.727C264.002 250.727 255.541 254.232 249.303 260.47C243.065 266.708 239.56 275.169 239.56 283.991V313.097H306.088V283.991C306.088 275.169 302.584 266.708 296.345 260.47C290.107 254.232 281.646 250.727 272.824 250.727Z" fill="#D6DAFF" stroke="#4550E5" stroke-width="5" stroke-linecap="round" stroke-linejoin="round"/>
<path d="M272.824 304.781C284.306 304.781 293.614 295.473 293.614 283.991C293.614 272.509 284.306 263.201 272.824 263.201C261.342 263.201 252.034 272.509 252.034 283.991C252.034 295.473 261.342 304.781 272.824 304.781Z" fill="#D6DAFF"/>
<path d="M287.674 269.557C285.759 267.547 283.455 265.947 280.902 264.854C278.349 263.762 275.601 263.2 272.824 263.201C267.786 263.118 262.89 264.871 259.052 268.135C255.213 271.399 252.694 275.949 251.966 280.935C251.238 285.92 252.351 291 255.097 295.225C257.842 299.45 262.033 302.531 266.884 303.89L287.674 269.557Z" fill="white"/>
<path d="M272.824 304.781C284.306 304.781 293.614 295.473 293.614 283.991C293.614 272.509 284.306 263.201 272.824 263.201C261.342 263.201 252.034 272.509 252.034 283.991C252.034 295.473 261.342 304.781 272.824 304.781Z" stroke="#4550E5" stroke-width="5" stroke-linecap="round" stroke-linejoin="round"/>
<path d="M231.244 379.625V387.941" stroke="#4550E5" stroke-width="5" stroke-linecap="round" stroke-linejoin="round"/>
<path d="M314.404 379.625V387.941" stroke="#4550E5" stroke-width="5" stroke-linecap="round" stroke-linejoin="round"/>
<path d="M193.822 338.045V313.097" stroke="#4550E5" stroke-width="5" stroke-linecap="round" stroke-linejoin="round"/>
<path d="M173.032 338.045V325.571" stroke="#4550E5" stroke-width="5" stroke-linecap="round" stroke-linejoin="round"/>
<path d="M214.612 338.045V325.571" stroke="#4550E5" stroke-width="5" stroke-linecap="round" stroke-linejoin="round"/>
<path d="M272.824 338.045V313.097" stroke="#4550E5" stroke-width="5" stroke-linecap="round" stroke-linejoin="round"/>
<path d="M252.034 338.045V325.571" stroke="#4550E5" stroke-width="5" stroke-linecap="round" stroke-linejoin="round"/>
<path d="M293.614 338.045V325.571" stroke="#4550E5" stroke-width="5" stroke-linecap="round" stroke-linejoin="round"/>
<path d="M351.826 338.045V313.097" stroke="#4550E5" stroke-width="5" stroke-linecap="round" stroke-linejoin="round"/>
<path d="M331.036 338.045V325.571" stroke="#4550E5" stroke-width="5" stroke-linecap="round" stroke-linejoin="round"/>
<path d="M372.616 338.045V325.571" stroke="#4550E5" stroke-width="5" stroke-linecap="round" stroke-linejoin="round"/>
<path d="M189.07 212.711L185.506 209.147L181.942 212.711C180.426 214.222 179.226 216.018 178.41 217.996C177.594 219.975 177.18 222.095 177.19 224.235V238.253H193.822V224.235C193.817 219.918 192.11 215.777 189.07 212.711Z" fill="white" stroke="#4550E5" stroke-width="5" stroke-linecap="round" stroke-linejoin="round"/>
<path d="M232.729 212.711L229.165 209.147L225.601 212.711C224.086 214.222 222.885 216.018 222.069 217.996C221.254 219.975 220.839 222.095 220.849 224.235V238.253H237.6V224.235C237.564 219.901 235.812 215.758 232.729 212.711Z" fill="white" stroke="#4550E5" stroke-width="5" stroke-linecap="round" stroke-linejoin="round"/>
<path d="M276.388 212.711L272.824 209.147L269.26 212.711C267.744 214.222 266.544 216.018 265.728 217.996C264.912 219.975 264.498 222.095 264.508 224.235V238.253H281.14V224.235C281.135 219.918 279.428 215.777 276.388 212.711Z" fill="white" stroke="#4550E5" stroke-width="5" stroke-linecap="round" stroke-linejoin="round"/>
<path d="M320.047 212.711L316.483 209.147L312.919 212.711C311.403 214.222 310.203 216.018 309.387 217.996C308.571 219.975 308.157 222.095 308.167 224.235V238.253H324.799V224.235C324.794 219.918 323.087 215.777 320.047 212.711Z" fill="white" stroke="#4550E5" stroke-width="5" stroke-linecap="round" stroke-linejoin="round"/>
<path d="M356.4 212.711L359.964 209.147L363.528 212.711C366.567 215.777 368.275 219.918 368.28 224.235V238.253H351.648V224.235C351.637 222.095 352.052 219.975 352.868 217.996C353.684 216.018 354.884 214.222 356.4 212.711Z" fill="white" stroke="#4550E5" stroke-width="5" stroke-linecap="round" stroke-linejoin="round"/>
<path d="M210.454 204.989V213.305" stroke="#4550E5" stroke-width="5" stroke-linecap="round" stroke-linejoin="round"/>
<path d="M168.874 204.989V213.305" stroke="#4550E5" stroke-width="5" stroke-linecap="round" stroke-linejoin="round"/>
<path d="M252.034 204.989V213.305" stroke="#4550E5" stroke-width="5" stroke-linecap="round" stroke-linejoin="round"/>
<path d="M293.614 204.989V213.305" stroke="#4550E5" stroke-width="5" stroke-linecap="round" stroke-linejoin="round"/>
<path d="M335.194 204.989V213.305" stroke="#4550E5" stroke-width="5" stroke-linecap="round" stroke-linejoin="round"/>
<path d="M376.774 204.989V213.305" stroke="#4550E5" stroke-width="5" stroke-linecap="round" stroke-linejoin="round"/>
<path d="M270.508 387.941H275.259C276.835 387.941 278.346 388.567 279.46 389.681C280.574 390.795 281.199 392.306 281.199 393.881V417.047H264.568V393.881C264.568 392.306 265.193 390.795 266.307 389.681C267.421 388.567 268.932 387.941 270.508 387.941Z" fill="#D6DAFF"/>
<path d="M275.259 387.941H270.507C268.932 387.941 267.421 388.567 266.307 389.681C265.193 390.795 264.568 392.306 264.568 393.881V417.047H265.756L280.843 392.04C280.458 390.859 279.712 389.828 278.71 389.093C277.709 388.357 276.502 387.955 275.259 387.941Z" fill="white"/>
<path d="M270.508 387.941H275.259C276.835 387.941 278.346 388.567 279.46 389.681C280.574 390.795 281.199 392.306 281.199 393.881V417.047H264.568V393.881C264.568 392.306 265.193 390.795 266.307 389.681C267.421 388.567 268.932 387.941 270.508 387.941Z" stroke="#4550E5" stroke-width="5" stroke-linecap="round" stroke-linejoin="round"/>
<path d="M177.19 134.303C174.547 136.947 172.451 140.087 171.024 143.542C169.597 146.998 168.866 150.701 168.874 154.44V205.049H185.506V154.44C185.49 146.895 182.502 139.661 177.19 134.303Z" fill="#D6DAFF"/>
<path d="M185.506 162.221V154.44C185.474 146.916 182.488 139.706 177.19 134.363C174.554 136.999 172.462 140.129 171.035 143.574C169.608 147.019 168.874 150.711 168.874 154.44V190.08L185.506 162.221Z" fill="white"/>
<path d="M177.19 134.303C174.547 136.947 172.451 140.087 171.024 143.542C169.597 146.998 168.866 150.701 168.874 154.44V205.049H185.506V154.44C185.49 146.895 182.502 139.661 177.19 134.303V134.303Z" stroke="#4550E5" stroke-width="5" stroke-linecap="round" stroke-linejoin="round"/>
<path d="M210.454 134.303C207.778 136.932 205.65 140.065 204.192 143.522C202.734 146.978 201.975 150.689 201.96 154.44V205.049H218.592V154.44C218.623 146.921 215.701 139.69 210.454 134.303Z" fill="#D6DAFF"/>
<path d="M218.77 162.221V154.44C218.738 146.916 215.752 139.706 210.454 134.363C207.785 136.985 205.661 140.108 204.203 143.554C202.746 146.999 201.983 150.699 201.96 154.44V190.08L218.77 162.221Z" fill="white"/>
<path d="M210.454 134.303C207.778 136.932 205.65 140.065 204.192 143.522C202.734 146.978 201.975 150.689 201.96 154.44V205.049H218.592V154.44C218.623 146.921 215.701 139.69 210.454 134.303V134.303Z" stroke="#4550E5" stroke-width="5" stroke-linecap="round" stroke-linejoin="round"/>
<path d="M335.194 134.303C332.518 136.932 330.39 140.065 328.932 143.522C327.474 146.978 326.715 150.689 326.7 154.44V205.049H343.332V154.44C343.363 146.921 340.441 139.69 335.194 134.303Z" fill="#D6DAFF"/>
<path d="M343.51 162.221V154.44C343.478 146.916 340.492 139.706 335.194 134.363C332.525 136.985 330.401 140.108 328.943 143.554C327.486 146.999 326.723 150.699 326.7 154.44V190.08L343.51 162.221Z" fill="white"/>
<path d="M335.194 134.303C332.518 136.932 330.39 140.065 328.932 143.522C327.474 146.978 326.715 150.689 326.7 154.44V205.049H343.332V154.44C343.363 146.921 340.441 139.69 335.194 134.303V134.303Z" stroke="#4550E5" stroke-width="5" stroke-linecap="round" stroke-linejoin="round"/>
<path d="M368.28 134.303C363.006 139.672 360.079 146.915 360.142 154.44V205.049H376.774V154.44C376.71 146.87 373.657 139.632 368.28 134.303Z" fill="#D6DAFF"/>
<path d="M376.774 162.221V154.44C376.71 146.87 373.657 139.632 368.28 134.303C363.006 139.672 360.079 146.915 360.142 154.44V190.08L376.774 162.221Z" fill="white"/>
<path d="M368.28 134.303C363.006 139.672 360.079 146.915 360.142 154.44V205.049H376.774V154.44C376.71 146.87 373.657 139.632 368.28 134.303V134.303Z" stroke="#4550E5" stroke-width="5" stroke-linecap="round" stroke-linejoin="round"/>
<path d="M152.242 117.671H235.402" stroke="#4550E5" stroke-width="5" stroke-linecap="round" stroke-linejoin="round"/>
<path d="M152.242 101.039H235.402" stroke="#4550E5" stroke-width="5" stroke-linecap="round" stroke-linejoin="round"/>
<path d="M310.246 117.671H393.406" stroke="#4550E5" stroke-width="5" stroke-linecap="round" stroke-linejoin="round"/>
<path d="M310.246 101.039H393.406" stroke="#4550E5" stroke-width="5" stroke-linecap="round" stroke-linejoin="round"/>
<path d="M152.242 238.253H393.406" stroke="#4550E5" stroke-width="5" stroke-linecap="round" stroke-linejoin="round"/>
<path d="M135.61 313.097H410.038" stroke="#4550E5" stroke-width="5" stroke-linecap="round" stroke-linejoin="round"/>
<path d="M156.4 371.309H135.61" stroke="#4550E5" stroke-width="5" stroke-linecap="round" stroke-linejoin="round"/>
<path d="M231.244 101.039H156.4V117.671H231.244V101.039Z" fill="#D6DAFF" stroke="#4550E5" stroke-width="5" stroke-linecap="round" stroke-linejoin="round"/>
<path d="M389.248 101.039H314.404V117.671H389.248V101.039Z" fill="#D6DAFF" stroke="#4550E5" stroke-width="5" stroke-linecap="round" stroke-linejoin="round"/>
<path d="M272.824 263.201V304.781" stroke="#4550E5" stroke-width="5" stroke-linecap="round" stroke-linejoin="round"/>
<path d="M252.034 283.991H293.614" stroke="#4550E5" stroke-width="5" stroke-linecap="round" stroke-linejoin="round"/>
<path d="M210.454 288.149H177.19V313.097H210.454V288.149Z" fill="#D6DAFF"/>
<path d="M177.19 288.149V313.097H189.664L204.633 288.149H177.19Z" fill="white"/>
<path d="M210.454 288.149H177.19V313.097H210.454V288.149Z" stroke="#4550E5" stroke-width="5" stroke-linecap="round" stroke-linejoin="round"/>
<path d="M368.458 288.149H335.194V313.097H368.458V288.149Z" fill="#D6DAFF"/>
<path d="M335.194 288.149V313.097H347.668L362.637 288.149H335.194Z" fill="white"/>
<path d="M368.458 288.149H335.194V313.097H368.458V288.149Z" stroke="#4550E5" stroke-width="5" stroke-linecap="round" stroke-linejoin="round"/>
<path d="M210.454 392.099H177.19V417.047H210.454V392.099Z" fill="#D6DAFF"/>
<path d="M177.19 392.099V417.047H189.664L204.633 392.099H177.19Z" fill="white"/>
<path d="M210.454 392.099H177.19V417.047H210.454V392.099Z" stroke="#4550E5" stroke-width="5" stroke-linecap="round" stroke-linejoin="round"/>
<path d="M368.458 392.099H335.194V417.047H368.458V392.099Z" fill="#D6DAFF"/>
<path d="M335.194 392.099V417.047H347.668L362.637 392.099H335.194Z" fill="white"/>
<path d="M368.458 392.099H335.194V417.047H368.458V392.099Z" stroke="#4550E5" stroke-width="5" stroke-linecap="round" stroke-linejoin="round"/>
<path d="M469.26 369.884C469.26 383.665 464.33 395.604 458.806 395.604C453.281 395.604 448.351 383.724 448.351 369.884C448.351 356.044 458.806 319.81 458.806 319.81C458.806 319.81 469.26 356.044 469.26 369.884Z" fill="#D6DAFF" stroke="#4550E5" stroke-width="5" stroke-linecap="round" stroke-linejoin="round"/>
<path d="M458.984 395.604V417.047" stroke="#4550E5" stroke-width="5" stroke-linecap="round" stroke-linejoin="round"/>
<path d="M102.168 332.64C101.918 336.779 100.097 340.666 97.0777 343.508C94.0585 346.35 90.0684 347.933 85.922 347.933C81.7756 347.933 77.7855 346.35 74.7663 343.508C71.7471 340.666 69.9265 336.779 69.6761 332.64" stroke="#4550E5" stroke-width="5" stroke-linecap="round" stroke-linejoin="round"/>
<path d="M75.735 326.7H63.855C63.1601 326.679 62.4917 326.428 61.9542 325.987C61.8933 326.301 61.8933 326.624 61.9542 326.938L63.1422 335.788C63.2547 336.497 63.6149 337.142 64.1588 337.61C64.7027 338.078 65.3949 338.337 66.1122 338.342H73.7748C74.4888 338.348 75.1798 338.091 75.7165 337.62C76.2531 337.149 76.598 336.497 76.6854 335.788L77.8734 326.938C77.9343 326.624 77.9343 326.301 77.8734 325.987C77.5841 326.245 77.2453 326.441 76.8776 326.564C76.5099 326.686 76.1211 326.733 75.735 326.7Z" fill="white" stroke="#4550E5" stroke-width="5" stroke-linecap="round" stroke-linejoin="round"/>
<path d="M69.6761 313.87C67.2918 313.885 65.0105 314.843 63.3301 316.535C61.6497 318.227 60.7066 320.514 60.7067 322.898C60.7067 325.512 62.0135 326.581 63.6767 326.581H75.5567C77.2199 326.581 78.5267 325.512 78.5267 322.898C78.5271 320.534 77.6004 318.264 75.9455 316.576C74.2906 314.888 72.0396 313.916 69.6761 313.87Z" fill="#D6DAFF" stroke="#4550E5" stroke-width="5" stroke-linecap="round" stroke-linejoin="round"/>
<path d="M108.227 326.7H96.3468C95.6677 326.689 95.0147 326.437 94.5054 325.987C94.4728 326.303 94.4728 326.622 94.5054 326.938L95.6934 335.788C95.8059 336.497 96.1661 337.142 96.71 337.61C97.2539 338.078 97.9461 338.337 98.6634 338.342H106.326C107.04 338.348 107.731 338.091 108.268 337.62C108.804 337.149 109.149 336.497 109.237 335.788L110.187 326.7C110.22 326.384 110.22 326.066 110.187 325.75C109.685 326.313 108.98 326.655 108.227 326.7Z" fill="white" stroke="#4550E5" stroke-width="5" stroke-linecap="round" stroke-linejoin="round"/>
<path d="M102.168 313.87C99.7837 313.885 97.5025 314.843 95.8221 316.535C94.1416 318.227 93.1986 320.514 93.1986 322.898C93.1986 325.512 94.5054 326.581 96.1686 326.581H108.049C109.712 326.581 111.019 325.512 111.019 322.898C111.019 320.534 110.092 318.264 108.437 316.576C106.783 314.888 104.532 313.916 102.168 313.87Z" fill="#D6DAFF" stroke="#4550E5" stroke-width="5" stroke-linecap="round" stroke-linejoin="round"/>
<path d="M85.9517 348.797V417.047" stroke="#4550E5" stroke-width="5" stroke-linecap="round" stroke-linejoin="round"/>
<path d="M195.842 512.741C240.129 512.741 276.032 508.752 276.032 503.831C276.032 498.91 240.129 494.921 195.842 494.921C151.554 494.921 115.652 498.91 115.652 503.831C115.652 508.752 151.554 512.741 195.842 512.741Z" fill="#F0F2FF"/>
<path d="M226.908 407.722V428.63H127.591C126.016 428.63 124.505 429.256 123.391 430.37C122.277 431.484 121.651 432.995 121.651 434.57V483.397C121.635 484.83 122.137 486.22 123.065 487.311C123.993 488.403 125.284 489.122 126.7 489.337L140.897 491.535H260.885C262.46 491.535 263.971 490.909 265.085 489.795C266.199 488.681 266.825 487.17 266.825 485.595V439.56C266.826 435.347 266.528 431.138 265.934 426.967L263.795 412.177C263.392 409.322 261.964 406.712 259.778 404.832C257.593 402.952 254.798 401.931 251.915 401.96H232.848C231.303 401.959 229.818 402.56 228.709 403.636C227.601 404.712 226.954 406.177 226.908 407.722Z" fill="white" stroke="#4550E5" stroke-width="5" stroke-linecap="round" stroke-linejoin="round"/>
<path d="M165.31 491.476C165.31 493.626 164.673 495.727 163.478 497.515C162.284 499.302 160.586 500.696 158.6 501.518C156.613 502.341 154.428 502.556 152.319 502.137C150.211 501.718 148.274 500.682 146.754 499.162C145.233 497.642 144.198 495.705 143.779 493.596C143.359 491.488 143.574 489.302 144.397 487.316C145.22 485.329 146.613 483.632 148.401 482.437C150.188 481.243 152.29 480.605 154.44 480.605C157.323 480.605 160.088 481.751 162.126 483.789C164.165 485.828 165.31 488.593 165.31 491.476Z" fill="#D6DAFF" stroke="#4550E5" stroke-width="5" stroke-linecap="round" stroke-linejoin="round"/>
<path d="M243.124 491.476C243.124 493.626 242.487 495.727 241.292 497.515C240.098 499.302 238.4 500.696 236.414 501.518C234.428 502.341 232.242 502.556 230.133 502.137C228.025 501.718 226.088 500.682 224.568 499.162C223.048 497.642 222.012 495.705 221.593 493.596C221.173 491.488 221.389 489.302 222.211 487.316C223.034 485.329 224.427 483.632 226.215 482.437C228.003 481.243 230.104 480.605 232.254 480.605C235.137 480.605 237.902 481.751 239.941 483.789C241.979 485.828 243.124 488.593 243.124 491.476Z" fill="#D6DAFF" stroke="#4550E5" stroke-width="5" stroke-linecap="round" stroke-linejoin="round"/>
<path d="M200.534 452.093H179.744V491.476H200.534V452.093Z" fill="#D6DAFF" stroke="#4550E5" stroke-width="5" stroke-linecap="round" stroke-linejoin="round"/>
<path d="M167.745 452.093H134.957V470.151H167.745V452.093Z" fill="#D6DAFF"/>
<path d="M167.745 452.093H134.957V470.151H167.745V452.093Z" stroke="#4550E5" stroke-width="5" stroke-linecap="round" stroke-linejoin="round"/>
<path d="M233.086 452.093H212.296V470.151H233.086V452.093Z" fill="#D6DAFF"/>
<path d="M233.086 452.093H212.296V470.151H233.086V452.093Z" stroke="#4550E5" stroke-width="5" stroke-linecap="round" stroke-linejoin="round"/>
<path d="M266.825 452.093H246.035V470.151H266.825V452.093Z" fill="#D6DAFF"/>
<path d="M266.825 452.093H246.035V470.151H266.825V452.093Z" stroke="#4550E5" stroke-width="5" stroke-linecap="round" stroke-linejoin="round"/>
<path d="M245.678 429.046H266.171L264.092 414.315H245.678C244.103 414.315 242.592 414.941 241.478 416.055C240.364 417.169 239.738 418.68 239.738 420.255V423.225C239.769 424.78 240.409 426.26 241.52 427.349C242.63 428.437 244.123 429.047 245.678 429.046Z" fill="#D6DAFF"/>
<path d="M245.678 429.046H266.171L264.092 414.315H245.678C244.103 414.315 242.592 414.941 241.478 416.055C240.364 417.169 239.738 418.68 239.738 420.255V423.225C239.769 424.78 240.409 426.26 241.52 427.349C242.63 428.437 244.123 429.047 245.678 429.046V429.046Z" stroke="#4550E5" stroke-width="5" stroke-linecap="round" stroke-linejoin="round"/>
<path d="M135.67 417.047H226.908V428.63H129.73V422.987C129.73 421.412 130.356 419.901 131.47 418.787C132.583 417.673 134.094 417.047 135.67 417.047Z" stroke="#4550E5" stroke-width="5" stroke-linecap="round" stroke-linejoin="round"/>
<path d="M160.142 417.047H146.302V428.63H160.142V417.047Z" stroke="#4550E5" stroke-width="5" stroke-linecap="round" stroke-linejoin="round"/>
<path d="M187.11 417.047H173.27V428.63H187.11V417.047Z" stroke="#4550E5" stroke-width="5" stroke-linecap="round" stroke-linejoin="round"/>
<path d="M214.375 417.047H200.534V428.63H214.375V417.047Z" stroke="#4550E5" stroke-width="5" stroke-linecap="round" stroke-linejoin="round"/>
<path d="M200.534 452.093H179.744V470.151H200.534V452.093Z" fill="#D6DAFF" stroke="#4550E5" stroke-width="5" stroke-linecap="round" stroke-linejoin="round"/>
<path d="M136.085 440.392H254.588" stroke="#4550E5" stroke-width="5" stroke-linecap="round" stroke-linejoin="round"/>
</svg>
