<svg width="114" height="79" viewBox="0 0 114 79" fill="none" xmlns="http://www.w3.org/2000/svg">
<path d="M83.528 78.928C97.64 78.928 104.264 71.152 104.264 60.496V55.312C104.264 46.384 99.656 39.184 89.864 37.168C93.608 23.344 101.672 12.688 113.48 0.879997H91.304C74.6 14.704 62.792 37.168 62.792 55.6V60.496C62.792 71.152 69.416 78.928 83.528 78.928ZM21.032 78.928C35.144 78.928 41.768 71.152 41.768 60.496V55.312C41.768 46.384 37.16 39.184 27.368 37.168C31.112 23.344 39.176 12.688 50.984 0.879997H28.808C12.104 14.704 0.296 37.168 0.296 55.6V60.496C0.296 71.152 6.92 78.928 21.032 78.928Z" fill="#4550E5"/>
</svg>
